<?xml version="1.0" standalone="no"?>
<!DOCTYPE svg PUBLIC "-//W3C//DTD SVG 20010904//EN"
 "http://www.w3.org/TR/2001/REC-SVG-20010904/DTD/svg10.dtd">
<svg version="1.0" xmlns="http://www.w3.org/2000/svg"
 width="225.000000pt" height="316.000000pt" viewBox="0 0 225.000000 316.000000"
 preserveAspectRatio="xMidYMid meet">

<g transform="translate(0.000000,316.000000) scale(0.100000,-0.100000)"
fill="#000000" stroke="none">
<path d="M0 1580 l0 -1580 1125 0 1125 0 0 1580 0 1580 -1125 0 -1125 0 0
-1580z m983 1482 c2 7 8 10 12 6 11 -11 -4 -28 -26 -28 -13 0 -19 7 -19 23 1
21 1 21 14 4 10 -13 15 -15 19 -5z m-346 -5 c-4 -14 -89 -17 -124 -5 -14 4
-23 3 -23 -2 0 -6 -10 -8 -22 -6 -13 3 -29 5 -35 5 -7 1 -13 4 -13 9 0 4 50 8
111 9 82 2 109 -1 106 -10z m78 3 c-3 -5 -17 -10 -31 -10 -13 0 -24 5 -24 10
0 6 14 10 31 10 17 0 28 -4 24 -10z m107 -7 c8 -10 3 -12 -23 -9 -19 3 -40 5
-47 5 -7 1 -10 6 -7 11 9 14 64 9 77 -7z m108 2 c0 -10 -55 -15 -77 -7 -29 10
-10 21 32 19 25 -1 45 -7 45 -12z m264 1 c-5 -14 -34 -18 -34 -4 0 5 -6 6 -12
1 -16 -10 -37 -10 -64 -2 -11 4 -27 4 -34 -1 -7 -4 -19 -6 -27 -3 -32 12 -7
19 82 20 73 2 93 -1 89 -11z m46 0 c0 -6 5 -4 10 4 9 13 11 13 20 0 7 -11 10
-11 10 -2 0 9 17 12 65 10 45 -2 65 -6 65 -15 0 -7 -4 -13 -10 -13 -5 0 -10 5
-10 11 0 5 -5 7 -12 3 -20 -12 -176 -11 -171 2 5 14 33 14 33 0z m226 5 c-10
-16 -46 -20 -46 -5 0 8 10 14 26 14 14 0 23 -4 20 -9z m112 -4 c8 -10 6 -13
-9 -13 -10 0 -19 5 -19 11 0 5 -5 3 -10 -5 -5 -8 -10 -10 -10 -4 0 7 -11 9
-25 6 -15 -2 -25 0 -25 7 0 15 85 14 98 -2z m62 1 c0 -4 -9 -8 -20 -8 -11 0
-20 4 -20 9 0 6 9 9 20 8 11 -1 20 -5 20 -9z m70 -4 c0 -10 -19 -12 -40 -4 -3
1 -8 2 -12 1 -5 0 -8 4 -8 9 0 6 14 9 30 8 17 -1 30 -8 30 -14z m40 1 c0 -9
-6 -12 -15 -9 -8 4 -15 10 -15 15 0 5 7 9 15 9 8 0 15 -7 15 -15z m22 -7 c-7
-7 -12 -8 -12 -2 0 14 12 26 19 19 2 -3 -1 -11 -7 -17z m58 13 c0 -6 -4 -13
-10 -16 -5 -3 -10 -1 -10 5 0 6 -4 8 -10 5 -5 -3 -10 -1 -10 4 0 6 9 11 20 11
11 0 20 -4 20 -9z m-1479 -132 c8 -14 -1 -59 -12 -59 -5 0 -14 11 -19 25 -14
38 -56 29 -65 -13 -5 -26 2 -28 27 -6 16 16 18 15 27 -7 5 -14 5 -29 0 -35 -5
-6 -6 -14 -2 -17 3 -4 1 -7 -5 -7 -6 0 -14 5 -17 10 -14 22 -35 10 -35 -20 0
-28 3 -30 35 -30 29 0 36 4 41 25 8 34 21 31 26 -6 3 -22 0 -33 -13 -40 -24
-12 -146 -12 -154 1 -4 6 5 10 19 10 24 0 26 3 26 49 0 76 -10 111 -31 111
-11 0 -19 4 -19 10 0 10 100 19 140 12 14 -2 28 -8 31 -13z m160 4 c8 -178 6
-163 24 -163 15 0 22 -19 8 -21 -101 -13 -143 3 -143 56 0 39 18 84 34 86 6 1
21 1 34 2 30 0 28 15 -5 28 -26 10 -27 12 -8 19 34 14 55 11 56 -7z m280 7
c27 0 29 -3 29 -35 0 -42 -5 -43 -41 -9 -29 27 -59 27 -59 0 0 -9 16 -19 39
-26 45 -12 62 -29 67 -69 5 -44 -33 -66 -95 -54 -44 8 -46 10 -49 46 -4 45 14
49 46 12 25 -29 47 -32 56 -9 10 27 7 31 -44 52 -40 17 -50 26 -50 44 0 38 27
62 58 52 8 -2 27 -4 43 -4z m136 -22 c8 -13 9 -18 12 -38 0 -5 14 -7 29 -4 35
7 50 -10 54 -59 1 -21 8 -43 15 -49 24 -19 3 -27 -77 -27 -74 0 -101 9 -65 23
11 4 15 22 15 70 0 47 -4 65 -15 70 -8 3 -15 10 -15 16 0 14 37 13 47 -2z
m273 -38 c11 -11 20 -29 20 -40 0 -16 -7 -20 -40 -21 -59 -2 -63 -3 -67 -16
-2 -6 7 -19 22 -29 25 -16 27 -16 50 6 l25 23 0 -22 c0 -14 -9 -25 -26 -31
-36 -14 -38 -13 -73 19 -25 23 -30 34 -26 62 8 62 74 90 115 49z m183 -11 c29
-36 18 -54 -36 -57 -39 -3 -47 -6 -47 -23 0 -28 24 -34 61 -15 39 19 49 13 24
-14 -22 -24 -62 -26 -93 -4 -17 11 -22 25 -22 57 0 47 6 59 35 74 26 15 56 8
78 -18z m216 17 c14 -9 14 -43 0 -52 -6 -3 -22 -1 -35 7 -18 9 -27 10 -35 2
-15 -15 -3 -63 16 -63 18 0 20 -30 3 -31 -7 0 -20 -2 -29 -4 -9 -1 -32 0 -50
4 l-34 8 28 13 c15 7 28 21 28 32 4 61 3 63 -19 66 -23 3 -30 18 -12 24 18 6
127 1 139 -6z m161 -11 c7 -8 13 -33 14 -55 0 -24 7 -45 16 -50 23 -14 3 -25
-55 -27 -55 -2 -85 12 -85 42 0 20 29 45 51 45 11 0 29 5 40 11 16 8 18 13 8
25 -15 19 -36 18 -47 -3 -12 -20 -44 -10 -36 12 8 20 77 20 94 0z m207 -1 c18
-3 22 -11 21 -44 0 -24 6 -48 16 -59 9 -10 16 -20 16 -24 0 -10 -169 -6 -176
5 -3 5 2 12 12 14 24 6 30 66 9 84 -8 7 -13 16 -10 20 5 8 76 11 112 4z m-686
-271 c13 -16 12 -17 -3 -4 -10 7 -18 15 -18 17 0 8 8 3 21 -13z m-287 -25
c-44 -33 -53 -36 -19 -6 16 15 34 28 39 28 5 0 -4 -10 -20 -22z m-84 -88 c-6
-11 -13 -20 -16 -20 -2 0 0 9 6 20 6 11 13 20 16 20 2 0 0 -9 -6 -20z m397
-22 c-3 -8 -6 -5 -6 6 -1 11 2 17 5 13 3 -3 4 -12 1 -19z m-320 -60 c-3 -8 -6
-5 -6 6 -1 11 2 17 5 13 3 -3 4 -12 1 -19z m22 -61 c1 -5 -3 -5 -9 -2 -5 3
-10 16 -9 28 0 21 1 21 9 2 5 -11 9 -24 9 -28z m8 -69 c-3 -8 -6 -5 -6 6 -1
11 2 17 5 13 3 -3 4 -12 1 -19z m271 -168 c-1 -30 -26 86 -26 120 0 22 5 10
13 -35 7 -38 13 -77 13 -85z m-318 30 c-22 -48 -22 -43 0 35 9 30 16 42 18 29
2 -11 -7 -40 -18 -64z m327 -72 c-3 -8 -6 -5 -6 6 -1 11 2 17 5 13 3 -3 4 -12
1 -19z m0 -55 c-3 -10 -5 -4 -5 12 0 17 2 24 5 18 2 -7 2 -21 0 -30z m-137
-53 c-6 -11 -13 -20 -16 -20 -2 0 0 9 6 20 6 11 13 20 16 20 2 0 0 -9 -6 -20z
m147 -37 c-3 -10 -5 -4 -5 12 0 17 2 24 5 18 2 -7 2 -21 0 -30z m-337 6 c0 -6
-4 -7 -10 -4 -5 3 -10 11 -10 16 0 6 5 7 10 4 6 -3 10 -11 10 -16z m155 -139
c3 -5 1 -10 -4 -10 -6 0 -11 5 -11 10 0 6 2 10 4 10 3 0 8 -4 11 -10z m179
-19 c-4 -16 -1 -32 5 -35 7 -5 11 4 11 23 0 34 14 40 29 14 9 -16 10 -16 11 5
0 12 5 22 11 22 8 0 9 -12 4 -37 -8 -46 -13 -52 -25 -33 -9 14 -14 7 -11 -13
2 -9 -39 1 -52 12 -7 7 10 71 19 71 2 0 1 -13 -2 -29z m-221 12 c-7 -2 -19 -2
-25 0 -7 3 -2 5 12 5 14 0 19 -2 13 -5z m-503 -34 c4 18 13 24 38 26 42 3 53
-19 23 -48 l-21 -21 0 29 -1 30 -18 -22 c-23 -27 -41 -30 -41 -5 -1 16 -1 16
-14 0 -22 -29 -28 -20 -10 15 l17 32 10 -30 c11 -29 11 -29 17 -6z m130 0 c0
-13 5 -17 18 -12 11 4 14 3 7 -4 -14 -15 -73 -24 -80 -13 -3 6 -2 10 3 10 6 0
13 11 16 25 7 28 36 24 36 -6z m113 -5 c-17 -13 -17 -13 0 -14 9 0 17 -5 17
-11 0 -6 -9 -8 -22 -3 -31 9 -33 11 -18 29 11 13 10 14 -4 9 -9 -3 -16 -13
-16 -21 0 -12 -2 -12 -16 1 -17 17 -10 40 10 33 7 -3 19 -1 27 3 8 5 19 4 26
-2 11 -9 10 -13 -4 -24z m428 23 c-6 -8 -8 -17 -4 -20 3 -4 2 -7 -4 -7 -16 0
-24 28 -10 34 22 9 29 6 18 -7z m200 -9 c10 -19 12 -19 21 -5 12 23 28 21 28
-3 0 -11 5 -20 11 -20 6 0 8 9 4 20 -8 25 22 40 36 19 6 -10 1 -21 -18 -37
l-26 -24 -12 22 c-9 17 -13 19 -17 8 -3 -8 -22 -15 -44 -16 -36 -3 -37 -2 -21
16 19 20 23 37 7 27 -5 -3 -10 -1 -10 4 0 19 29 12 41 -11z m159 12 c0 -5 -8
-10 -17 -10 -17 -1 -17 -1 0 -11 14 -9 22 -7 32 8 9 10 14 13 15 6 0 -20 20
-15 20 4 0 9 2 14 5 11 9 -9 -6 -59 -15 -53 -5 3 -11 -1 -13 -7 -4 -10 -7 -10
-15 0 -7 10 -15 10 -37 2 -19 -7 -31 -8 -39 0 -7 7 -5 10 7 10 10 0 17 8 17
19 0 11 8 22 18 24 9 3 18 5 20 6 1 0 2 -3 2 -9z m105 -35 c6 -30 6 -30 -8 -6
-12 21 -15 21 -21 6 -3 -10 -9 -16 -12 -13 -2 3 1 17 7 32 14 30 25 24 34 -19z
m-541 20 c8 -8 18 -15 21 -15 4 0 5 7 1 15 -3 8 -1 15 4 15 13 0 13 -27 0 -35
-6 -4 -17 -2 -24 5 -11 8 -15 8 -19 -2 -3 -10 -7 -10 -17 -1 -12 11 -6 33 10
33 5 0 15 -7 24 -15z m-289 -17 c-19 -11 -30 -5 -21 11 4 6 14 7 22 4 15 -5
14 -7 -1 -15z m118 15 c-20 -8 -15 -26 5 -18 14 5 15 4 5 -6 -10 -10 -16 -10
-24 -2 -13 13 -4 33 14 32 9 0 9 -2 0 -6z m40 -13 c3 -11 1 -20 -4 -20 -5 0
-9 9 -9 20 0 11 2 20 4 20 2 0 6 -9 9 -20z m47 -5 c-7 -9 -15 -13 -17 -11 -6
6 20 36 26 30 2 -2 -2 -10 -9 -19z m-126 -15 c-6 -6 -10 -2 -11 12 -2 16 1 18
10 9 7 -7 8 -14 1 -21z m-74 -29 c0 -5 -9 -11 -20 -14 -25 -6 -27 -37 -2 -37
13 0 14 2 4 9 -11 7 -11 9 2 14 10 4 16 1 16 -8 0 -8 5 -15 11 -15 7 0 9 10 5
24 -3 14 -2 28 4 31 6 4 10 -6 10 -24 0 -18 5 -31 13 -31 9 0 9 -2 0 -8 -6 -4
-28 -7 -50 -7 -34 0 -38 3 -41 28 -3 25 9 37 46 46 1 1 2 -3 2 -8z m115 -1 c3
-5 -1 -10 -10 -10 -9 0 -13 5 -10 10 3 6 8 10 10 10 2 0 7 -4 10 -10z m65 6
c0 -3 -4 -8 -10 -11 -5 -3 -10 -1 -10 4 0 6 5 11 10 11 6 0 10 -2 10 -4z m260
-1 c0 -12 -35 -75 -42 -75 -11 0 -10 4 9 45 14 29 33 47 33 30z m-73 -30 c-10
-20 -13 -22 -18 -7 -4 11 0 20 10 24 9 4 17 7 18 7 0 1 -4 -10 -10 -24z m-887
-13 c0 25 3 27 37 25 22 -2 38 -9 41 -17 3 -13 2 -13 -7 0 -6 8 -11 10 -11 5
0 -6 5 -16 12 -23 9 -9 15 -6 24 16 l12 27 -1 -31 c0 -27 -3 -30 -28 -30 -21
0 -29 4 -29 18 0 24 -17 23 -32 -2 -14 -23 -34 -26 -41 -7 -4 9 -8 8 -16 -3
-15 -21 -15 5 1 33 11 22 12 22 24 -8 l13 -30 1 27z m148 -12 c15 0 15 -2 2
-10 -25 -16 -30 -12 -29 23 1 23 3 26 6 10 2 -13 12 -23 21 -23z m262 9 c-12
-16 -25 -28 -28 -25 -2 3 1 12 8 21 9 11 9 15 1 15 -7 0 -9 5 -6 10 3 6 15 10
26 10 20 0 20 -1 -1 -31z m390 20 c0 -5 -4 -7 -10 -4 -5 3 -10 2 -10 -4 0 -5
6 -12 13 -14 7 -3 5 -6 -5 -6 -18 -1 -24 19 -11 32 10 10 23 8 23 -4z m32 -19
c5 0 8 7 4 15 -3 8 -1 15 5 15 17 0 5 -35 -14 -38 -12 -3 -17 3 -16 20 1 17 3
18 6 6 2 -10 9 -18 15 -18z m247 10 c1 9 11 15 26 15 28 0 31 -5 13 -24 -11
-11 -10 -13 5 -8 9 4 17 2 17 -3 0 -16 -52 -20 -62 -5 -5 6 -8 6 -8 -2 0 -7
-4 -13 -10 -13 -5 0 -10 9 -10 20 0 11 -4 20 -10 20 -5 0 -10 -9 -10 -20 0
-28 -17 -25 -22 4 -4 22 -1 25 26 28 20 2 33 -2 38 -12 6 -13 7 -13 7 0z m121
-16 c0 -7 -6 -14 -13 -17 -11 -4 -16 27 -8 53 2 8 21 -24 21 -36z m34 21 c-4
-8 -1 -15 5 -15 6 0 11 4 11 9 0 10 31 24 38 16 3 -2 -1 -11 -8 -20 -10 -12
-9 -15 6 -16 15 0 14 -2 -6 -10 -17 -7 -26 -7 -28 0 -2 7 -11 7 -25 -1 -19
-10 -20 -9 -9 4 10 12 10 17 1 20 -7 2 -9 10 -5 16 10 17 26 15 20 -3z m109
-1 c5 12 11 15 24 8 10 -5 32 -7 50 -5 38 3 53 -15 28 -34 -29 -21 -43 -15
-15 7 l25 19 -29 -3 c-16 -2 -35 -11 -43 -21 -12 -18 -13 -17 -14 6 l0 24 -10
-25 c-8 -18 -12 -21 -18 -11 -7 11 -9 11 -14 0 -3 -8 -5 2 -6 21 0 26 2 30 8
16 7 -18 8 -18 14 -2z m155 -5 c3 -11 2 -11 -7 1 -6 8 -11 10 -11 4 0 -6 7
-17 15 -24 12 -10 15 -10 15 3 0 22 23 37 40 27 19 -12 0 -46 -24 -44 -9 1
-16 -3 -16 -8 0 -6 -6 -5 -15 2 -8 7 -15 9 -16 4 -1 -5 -4 2 -8 16 -5 14 -6
29 -4 33 7 12 26 3 31 -14z m-1296 -15 c-4 -22 -6 -24 -14 -10 -9 16 -3 36 11
36 5 0 6 -12 3 -26z m45 19 c-4 -3 -2 -12 4 -19 9 -11 7 -15 -6 -20 -25 -10
-39 10 -20 30 9 9 19 16 22 16 4 0 3 -3 0 -7z m64 -7 c5 3 9 1 9 -5 0 -12 -21
-20 -37 -14 -9 4 -9 8 0 18 7 7 14 9 15 4 2 -5 8 -7 13 -3z m56 -6 c-1 -11 -5
-20 -9 -20 -11 0 -20 19 -13 30 11 17 24 11 22 -10z m274 1 c-11 -7 -11 -10 0
-14 10 -4 9 -6 -3 -6 -20 -1 -25 25 -5 32 18 6 24 -3 8 -12z m93 10 c3 -5 -1
-14 -9 -21 -8 -7 -15 -10 -15 -7 0 3 -3 12 -6 21 -7 17 20 23 30 7z m-128 -30
c-11 -17 -25 -13 -21 7 2 9 4 19 4 22 1 2 6 -1 12 -7 6 -6 8 -16 5 -22z m-73
-66 c-18 -39 -28 -43 -37 -18 -6 14 -8 14 -20 -3 -8 -10 -16 -17 -19 -14 -10
12 -16 70 -7 70 6 0 10 -7 10 -15 0 -18 16 -20 24 -2 5 10 7 10 12 0 9 -19 21
-16 27 8 3 12 10 18 16 15 7 -5 5 -19 -6 -41z m-179 5 c3 0 6 6 6 13 0 8 14
14 38 15 37 2 37 2 12 -13 -15 -9 -19 -14 -10 -15 13 0 13 -1 0 -11 -12 -8 -9
-9 13 -5 32 8 37 -9 5 -18 -41 -11 -50 -7 -43 15 5 15 4 19 -4 15 -6 -4 -11
-14 -11 -23 0 -13 -3 -13 -15 -3 -12 10 -15 10 -15 -4 0 -9 -5 -16 -11 -16 -6
0 -9 14 -8 33 4 44 10 53 24 34 7 -10 15 -17 19 -17z m246 20 c0 -5 -10 -10
-21 -10 -17 0 -20 -5 -17 -25 6 -27 -9 -35 -19 -10 -3 9 3 25 12 35 19 21 45
27 45 10z m-697 -9 c4 -1 7 -5 7 -11 0 -5 -8 -6 -17 -3 -17 6 -17 6 -1 -10 22
-22 28 -21 28 3 0 13 7 20 20 20 14 0 20 -7 20 -21 0 -11 5 -17 10 -14 6 3 10
1 10 -4 0 -20 -29 -11 -36 12 l-8 22 -6 -25 c-8 -34 -60 -38 -60 -5 0 12 -6
22 -15 22 -8 0 -12 -3 -10 -7 2 -3 0 -12 -5 -20 -8 -12 -13 -13 -29 -3 -15 10
-21 10 -24 0 -2 -7 -7 -9 -11 -5 -8 7 15 48 26 48 5 0 8 -7 8 -15 0 -8 5 -15
11 -15 5 0 7 5 4 10 -13 22 10 28 78 21z m894 -25 c-4 -9 -11 -16 -17 -16 -11
0 -14 33 -3 44 11 10 26 -11 20 -28z m33 -1 c5 3 6 13 3 23 -5 13 -3 15 7 5
15 -14 5 -46 -13 -41 -6 3 -12 13 -13 24 -1 16 0 16 3 1 3 -9 8 -15 13 -12z
m63 28 c-7 -2 -13 -12 -13 -21 0 -15 -2 -15 -10 -2 -15 23 -12 30 13 29 12 0
16 -3 10 -6z m261 -30 c-16 -25 -33 -28 -27 -4 8 31 -16 26 -28 -5 -11 -30
-14 -30 -23 8 -6 25 -4 27 31 30 46 4 62 -6 47 -29z m123 6 c-7 -26 10 -24 18
1 8 24 21 26 29 4 9 -24 7 -41 -4 -24 -8 13 -11 12 -24 -5 -11 -15 -17 -17
-28 -7 -8 6 -18 9 -21 5 -4 -3 -7 5 -7 19 0 30 7 38 27 31 8 -3 13 -14 10 -24z
m128 4 c-5 -27 -5 -27 6 -5 19 35 57 25 43 -11 -6 -17 -64 -21 -64 -5 0 5 -9
4 -19 -2 -32 -17 -38 -11 -11 11 l25 20 -24 -6 c-17 -5 -21 -4 -16 5 4 7 17 9
31 6 14 -4 24 -2 24 4 0 5 2 10 5 10 3 0 3 -12 0 -27z m165 6 c0 -4 -7 -6 -16
-2 -14 5 -13 2 2 -16 l19 -22 3 26 c2 18 9 25 25 25 12 0 18 -4 12 -8 -19 -13
-15 -30 5 -25 11 3 20 12 20 20 0 12 3 13 14 4 11 -9 15 -9 19 1 3 7 6 3 6 -9
1 -25 -15 -39 -22 -21 -3 7 -6 4 -6 -7 -1 -14 -4 -16 -9 -8 -6 9 -17 10 -41 3
-19 -5 -39 -6 -45 -2 -6 3 -19 5 -28 4 -10 -2 -18 2 -18 9 0 8 -4 8 -15 -1
-16 -13 -20 -3 -9 24 9 24 34 19 35 -6 1 -22 3 -19 14 19 5 14 35 6 35 -8z
m-1540 -14 c0 -22 -2 -24 -14 -13 -10 9 -11 17 -4 26 15 17 18 15 18 -13z m50
12 c0 -8 -9 -22 -19 -32 -19 -17 -20 -16 -17 11 5 36 3 34 21 34 8 0 15 -6 15
-13z m46 -23 c-14 -16 -29 -2 -20 19 4 12 9 13 18 4 9 -8 10 -15 2 -23z m84
28 c0 -4 -5 -13 -12 -20 -9 -9 -9 -12 0 -12 7 0 21 9 33 21 16 16 23 18 35 8
13 -11 13 -14 1 -27 -13 -12 -107 -24 -107 -13 0 3 8 13 17 23 16 18 16 18 -2
12 -13 -5 -16 -4 -11 4 8 13 46 16 46 4z m526 -21 c-4 -6 -12 -11 -17 -11 -6
0 -7 5 -4 10 3 6 0 10 -7 10 -9 0 -9 3 2 10 17 11 36 -3 26 -19z m271 4 c12
-20 12 -19 13 3 0 16 6 22 23 21 16 0 18 -2 7 -7 -24 -11 -22 -31 3 -25 21 4
21 3 -2 -10 -27 -16 -51 -12 -51 7 0 7 -7 13 -15 13 -8 0 -15 -6 -15 -14 0 -7
-4 -13 -9 -13 -4 0 -6 11 -4 24 6 29 33 29 50 1z m206 11 c7 -17 -18 -41 -32
-32 -5 3 -11 0 -14 -6 -2 -7 -8 -9 -13 -5 -5 4 -4 11 2 15 6 4 13 15 17 25 8
21 33 23 40 3z m507 5 c0 -5 3 -18 7 -28 6 -16 5 -16 -10 -4 -11 9 -17 10 -17
2 0 -6 -4 -11 -10 -11 -6 0 -5 10 2 25 11 24 28 34 28 16z m-1117 -34 c-3 -5
-9 -3 -14 4 -4 7 -5 17 -2 22 3 5 9 3 14 -4 4 -7 5 -17 2 -22z m55 11 c-14
-14 -23 -17 -30 -10 -15 15 -2 30 26 30 23 0 23 -1 4 -20z m32 -2 c0 -3 -4 -8
-10 -11 -5 -3 -10 -1 -10 4 0 6 5 11 10 11 6 0 10 -2 10 -4z m-80 -46 c0 -5
-4 -10 -10 -10 -5 0 -10 5 -10 10 0 6 5 10 10 10 6 0 10 -4 10 -10z m70 0 c0
-5 -2 -10 -4 -10 -3 0 -8 5 -11 10 -3 6 -1 10 4 10 6 0 11 -4 11 -10z m260 0
c0 -5 -7 -10 -16 -10 -8 0 -12 5 -9 10 3 6 10 10 16 10 5 0 9 -4 9 -10z m60 0
c0 -5 -5 -10 -12 -10 -6 0 -4 -6 7 -13 17 -13 17 -15 -5 -30 -29 -20 -41 -13
-14 8 18 13 18 14 1 15 -15 0 -16 3 -7 20 11 21 30 27 30 10z m130 0 c0 -5 -8
-11 -17 -11 -16 -1 -16 -2 0 -6 18 -5 18 -5 0 -18 -17 -13 -16 -14 7 -9 l25 5
-25 -14 c-30 -18 -40 -14 -40 18 0 18 -4 23 -15 19 -8 -4 -15 -17 -15 -30 0
-13 -5 -24 -11 -24 -6 0 -9 7 -5 15 3 8 -1 21 -9 29 -23 22 -19 25 43 29 31 2
58 4 60 5 1 1 2 -2 2 -8z m68 -2 c9 -9 9 -15 0 -25 -8 -10 -7 -17 8 -28 17
-13 17 -14 2 -15 -9 0 -19 6 -21 13 -4 9 -8 9 -15 -2 -7 -10 -11 -3 -14 23 -2
20 -2 39 1 41 8 9 27 5 39 -7z m-625 -10 c-4 -7 -6 -20 -5 -30 2 -9 -2 -19 -8
-23 -11 -7 -15 47 -3 58 11 12 24 7 16 -5z m310 -18 c-6 -22 -7 -22 -13 -4 -4
10 -2 22 4 26 15 10 16 6 9 -22z m-853 6 c0 -8 3 -23 6 -33 4 -13 3 -14 -3 -5
-5 7 -17 10 -27 6 -15 -6 -15 -3 -5 20 13 28 29 35 29 12z m50 -1 c0 -8 -4
-15 -10 -15 -5 0 -10 -8 -11 -17 -1 -12 -4 -9 -8 7 -5 14 -6 28 -4 33 7 13 33
7 33 -8z m43 -13 c-2 -12 2 -22 7 -22 6 0 10 11 10 25 0 18 5 25 20 25 13 0
20 -7 20 -20 0 -11 6 -20 13 -20 8 0 7 -4 -3 -10 -23 -15 -27 -12 -25 15 2 14
-1 23 -6 19 -5 -3 -9 -14 -9 -24 0 -15 -6 -19 -30 -17 -26 2 -30 6 -30 30 0
22 4 28 18 25 11 -3 16 -12 15 -26z m142 19 c3 -5 1 -12 -5 -16 -5 -3 -10 -11
-10 -16 0 -6 5 -7 10 -4 6 3 10 2 10 -3 0 -5 -11 -9 -25 -9 -29 0 -31 4 -8 29
16 18 16 19 -3 12 -15 -5 -16 -4 -4 5 19 13 27 14 35 2z m55 -6 c0 -8 -4 -15
-10 -15 -5 0 -10 5 -10 12 0 6 -2 9 -5 6 -8 -8 6 -39 15 -33 5 3 11 1 15 -5 4
-6 -4 -9 -19 -8 -20 2 -24 7 -21 28 4 32 2 30 20 30 8 0 15 -7 15 -15z m133 8
c4 -3 2 -12 -3 -18 -8 -9 -4 -14 15 -17 14 -3 28 -1 31 3 3 5 0 9 -6 9 -6 0
-9 4 -6 9 4 5 0 12 -6 14 -7 3 -3 6 10 6 20 1 23 -3 20 -26 -3 -26 -7 -28 -50
-31 -52 -2 -57 2 -31 30 16 18 16 18 -2 12 -13 -5 -16 -4 -11 4 8 13 29 16 39
5z m347 -13 c0 -19 -20 -27 -33 -13 -8 7 11 33 24 33 5 0 9 -9 9 -20z m32 -10
c5 0 8 7 4 15 -3 8 -1 15 5 15 6 0 9 -8 7 -17 -4 -22 -32 -24 -34 -3 0 9 1 10
3 3 3 -7 9 -13 15 -13z m462 14 c9 -24 8 -52 -2 -36 -5 7 -16 10 -25 6 -14 -5
-14 -2 -4 20 14 30 22 33 31 10z m49 -12 c-2 -12 2 -22 7 -22 6 0 10 9 10 19
0 10 7 22 16 25 24 9 27 7 13 -10 -10 -13 -10 -17 2 -25 15 -10 12 -11 -43
-13 -36 -2 -38 0 -38 27 0 22 4 28 18 25 11 -3 16 -12 15 -26z m131 6 c7 20
26 31 26 15 0 -5 3 -19 6 -33 6 -24 6 -25 -9 -5 -10 12 -16 15 -17 7 0 -8 -9
-11 -25 -8 -14 3 -25 0 -25 -5 0 -5 -4 -9 -10 -9 -13 0 -13 21 0 40 9 13 11
13 20 0 8 -13 10 -12 11 5 1 16 2 15 8 -5 l7 -25 8 23z m-1084 -8 c0 -4 -7
-10 -15 -13 -16 -7 -29 8 -20 23 6 10 35 2 35 -10z m250 10 c-8 -5 -11 -13 -6
-17 4 -4 15 1 23 12 8 11 13 14 11 6 -5 -18 -35 -37 -44 -29 -10 10 3 38 18
38 9 0 9 -3 -2 -10z m75 0 c-3 -5 -1 -10 4 -10 6 0 11 5 11 12 0 6 3 8 6 5 4
-4 1 -14 -6 -22 -11 -13 -15 -13 -21 -3 -12 18 -11 28 2 28 5 0 7 -4 4 -10z
m-110 -20 c0 -7 -5 -15 -10 -17 -6 -2 -11 6 -11 17 0 11 5 19 11 17 5 -2 10
-10 10 -17z m325 -5 c-33 -19 -49 -19 -24 0 10 8 26 14 34 14 9 0 4 -6 -10
-14z m-576 -71 c-6 -34 -8 -36 -20 -19 -13 18 -14 18 -14 -3 0 -12 -5 -22 -11
-22 -15 0 -7 72 9 78 6 2 12 -3 12 -12 0 -9 5 -16 10 -16 6 0 10 10 10 22 0
12 3 19 6 16 3 -3 2 -23 -2 -44z m251 37 c3 -5 1 -12 -5 -16 -5 -3 -10 1 -10
9 0 18 6 21 15 7z m65 -1 c0 -5 -5 -10 -11 -10 -5 0 -7 5 -4 10 3 6 8 10 11
10 2 0 4 -4 4 -10z m-245 -21 c5 -14 1 -25 -12 -34 -24 -19 -37 -14 -41 15 -6
39 42 56 53 19z m75 11 c0 -5 -7 -10 -15 -10 -11 0 -14 -7 -9 -25 4 -18 2 -25
-9 -25 -10 0 -13 8 -9 25 2 15 0 25 -7 25 -25 0 -9 16 19 18 17 1 30 -2 30 -8z
m70 0 c0 -5 -4 -10 -10 -10 -5 0 -10 -11 -10 -25 0 -14 -4 -25 -10 -25 -5 0
-10 11 -10 25 0 14 -4 25 -10 25 -5 0 -10 5 -10 10 0 6 14 10 30 10 17 0 30
-4 30 -10z m70 6 c0 -3 -4 -8 -10 -11 -5 -3 -10 -1 -10 4 0 6 5 11 10 11 6 0
10 -2 10 -4z m310 -55 c0 -25 -18 1 -25 34 l-6 30 15 -25 c8 -14 15 -32 16
-39z m-1057 40 c4 -1 7 -5 7 -11 0 -5 -8 -6 -17 -3 -17 6 -17 6 -1 -10 23 -23
28 -21 28 9 0 20 4 25 16 20 9 -3 18 -6 20 -6 2 0 4 -7 4 -15 0 -8 5 -15 12
-15 9 0 9 -3 1 -11 -14 -14 -36 -1 -29 17 3 8 0 14 -5 14 -6 0 -9 -9 -6 -19 3
-13 -1 -21 -14 -24 -11 -3 -19 -1 -19 5 0 6 -7 8 -15 4 -11 -4 -15 1 -15 17
l-1 22 -20 -24 c-17 -21 -24 -23 -38 -14 -14 9 -21 9 -30 0 -14 -14 -14 -2 -1
24 12 22 30 25 30 5 0 -8 5 -18 12 -22 7 -4 8 -3 4 5 -15 23 1 39 36 36 18 -2
36 -4 41 -4z m185 -15 c2 -32 -16 -45 -54 -39 -26 4 -31 10 -31 30 0 22 3 24
28 19 16 -3 29 -1 29 4 0 22 26 8 28 -14z m122 -11 c-20 -25 9 -19 38 8 14 12
22 17 18 10 -3 -6 -2 -14 4 -18 20 -13 -2 -25 -46 -25 -46 0 -53 7 -31 29 10
11 10 13 0 7 -7 -4 -13 -3 -13 3 0 13 23 20 34 10 5 -5 4 -14 -4 -24z m621 26
c0 8 4 5 9 -6 8 -19 9 -19 9 0 1 14 4 16 13 7 17 -17 -9 -47 -28 -31 -11 9
-18 8 -28 0 -19 -16 -32 5 -16 25 10 11 16 12 26 3 11 -9 14 -8 15 2z m72 -12
c-4 -16 -8 -17 -14 -7 -13 19 -11 28 5 28 9 0 12 -7 9 -21z m345 1 c3 -7 0
-10 -7 -6 -7 5 -9 1 -5 -8 3 -9 10 -16 15 -16 5 0 9 -5 9 -12 0 -9 -3 -9 -11
-1 -6 6 -17 9 -25 6 -9 -3 -12 3 -10 24 2 15 4 30 5 31 3 8 25 -5 29 -18z m39
-20 l-15 -22 -7 22 c-5 15 -2 25 6 31 22 13 33 -7 16 -31z m92 8 c1 26 7 27
27 8 20 -20 19 -43 -1 -26 -12 10 -15 9 -15 -5 0 -16 -2 -16 -24 -1 -17 11
-26 12 -28 4 -3 -7 -12 -9 -22 -5 -13 5 -15 11 -6 27 12 22 36 27 43 8 3 -8 6
-4 7 7 2 14 5 11 10 -10 6 -24 8 -26 9 -7z m94 15 c-7 -3 -13 -13 -13 -24 0
-10 -4 -19 -10 -19 -5 0 -10 9 -10 20 0 11 -7 20 -15 20 -8 0 -15 4 -15 8 0 4
17 6 38 3 20 -2 31 -6 25 -8z m115 -1 c2 -8 -3 -10 -15 -5 -17 6 -17 6 -1 -10
22 -22 28 -21 28 3 0 14 6 20 23 19 12 0 16 -3 9 -6 -15 -6 -6 -23 14 -23 8 0
14 7 14 15 0 18 20 20 21 3 0 -7 4 -4 9 7 7 17 9 15 9 -12 1 -33 -13 -45 -22
-20 -3 6 -6 3 -6 -8 -1 -15 -3 -17 -10 -6 -7 11 -15 11 -41 2 -22 -7 -37 -8
-45 -1 -6 5 -15 7 -18 3 -4 -3 -7 5 -7 19 0 37 27 52 38 20z m-541 -12 c11
-13 12 -13 13 3 0 10 8 17 19 17 22 0 35 -26 18 -37 -18 -12 -57 -10 -57 2 0
7 -7 12 -15 12 -8 0 -15 -6 -15 -14 0 -7 -4 -13 -10 -13 -11 0 -13 11 -4 33 7
18 35 17 51 -3z m151 -3 c-4 -28 -28 -34 -35 -8 -7 27 -23 27 -23 1 0 -11 -5
-20 -11 -20 -6 0 -9 6 -6 14 3 7 1 18 -5 24 -8 8 2 11 36 10 41 0 47 -3 44
-21z m342 -10 c0 -18 -2 -19 -11 -7 -8 11 -12 12 -16 3 -2 -7 -9 -13 -14 -13
-5 0 -2 11 7 25 18 28 34 24 34 -8z m208 2 c2 -19 1 -21 -8 -9 -9 13 -11 13
-20 0 -11 -17 -13 -1 -4 25 9 22 28 13 32 -16z m-1604 1 c-21 -8 -37 -3 -29
10 3 4 15 6 27 2 21 -5 21 -6 2 -12z m524 3 c-4 -22 -22 -20 -26 1 -2 10 3 16
13 16 10 0 15 -7 13 -17z m35 -16 c-7 -11 -23 2 -23 19 0 12 2 12 14 2 8 -7
12 -16 9 -21z m47 18 c-7 -8 -17 -15 -23 -15 -6 0 -2 7 9 15 25 19 30 19 14 0z
m-128 -10 c0 -5 -5 -11 -10 -13 -5 -1 -9 4 -9 13 0 9 4 14 9 13 5 -2 10 -8 10
-13z m-266 -47 c4 -6 -1 -17 -11 -24 -10 -8 -16 -16 -13 -19 3 -3 12 1 21 9 8
8 17 12 21 9 3 -4 6 3 6 15 0 12 4 22 9 22 5 0 9 -16 8 -35 -2 -35 -12 -46
-19 -23 -3 9 -10 8 -22 -5 -10 -10 -23 -16 -29 -14 -10 3 -18 55 -10 70 6 11
31 8 39 -5z m112 -10 c2 -10 -1 -18 -7 -18 -6 0 -11 8 -12 18 0 11 -2 13 -6 4
-3 -7 5 -24 18 -38 22 -24 14 -35 -9 -12 -10 10 -15 10 -21 -1 -6 -9 -10 -2
-13 23 -2 20 -2 39 1 42 11 11 46 -2 49 -18z m59 10 c8 20 20 14 28 -15 l7
-28 10 27 c9 27 37 34 55 13 5 -4 -2 -5 -15 -2 -19 4 -24 1 -29 -24 -7 -34
-28 -38 -37 -6 -5 17 -8 19 -15 8 -7 -11 -10 -11 -17 0 -6 10 -10 6 -15 -16
-7 -30 -7 -30 -8 6 -1 40 8 56 22 37 7 -10 10 -10 14 0z m-650 -29 c-3 -11 -1
-22 4 -25 5 -3 9 6 9 20 0 19 5 26 20 26 14 0 20 -7 20 -21 0 -11 4 -17 10
-14 6 3 10 2 10 -3 0 -6 -6 -12 -14 -15 -15 -6 -30 19 -20 34 3 5 0 9 -7 9 -6
0 -10 -10 -7 -23 4 -21 1 -23 -29 -23 -28 1 -33 4 -33 25 l0 24 -20 -24 c-18
-20 -24 -21 -40 -11 -12 7 -20 8 -20 2 0 -5 -4 -10 -10 -10 -6 0 -5 10 2 25
12 27 28 33 28 11 0 -22 13 -26 30 -8 13 14 12 15 -3 9 -9 -3 -17 -2 -17 2 0
13 18 17 57 13 28 -4 34 -8 30 -23z m1033 21 c0 -5 -5 -10 -11 -10 -5 0 -7 -4
-4 -10 3 -5 1 -10 -4 -10 -12 0 -15 23 -4 33 10 10 23 8 23 -3z m-897 -7 c4
-3 2 -12 -4 -20 -9 -10 -8 -13 4 -13 8 0 17 9 20 20 6 24 32 26 41 4 10 -27
-12 -43 -59 -41 -40 2 -43 4 -40 27 2 14 4 26 4 28 2 5 28 2 34 -5z m192 -3
c5 -8 11 -7 21 1 11 9 18 9 27 0 8 -8 6 -17 -12 -34 -13 -12 -21 -17 -17 -11
8 15 -20 39 -29 24 -3 -5 -1 -10 4 -10 6 0 11 -4 11 -9 0 -5 -11 -8 -25 -7
-30 1 -30 4 -8 28 16 18 16 18 -2 12 -13 -5 -16 -4 -11 4 9 15 33 16 41 2z
m611 -1 c10 -17 -13 -36 -27 -22 -12 12 -4 33 11 33 5 0 12 -5 16 -11z m35 -4
c7 19 8 19 8 -2 1 -14 -5 -23 -14 -23 -9 0 -15 9 -14 23 1 20 2 20 7 2 l5 -20
8 20z m169 -7 l9 -23 7 23 c3 12 10 22 14 22 9 0 20 -25 20 -48 0 -13 -3 -12
-15 4 -9 12 -14 14 -15 5 0 -7 -6 -11 -15 -8 -8 4 -17 2 -20 -3 -12 -20 -25
-9 -25 20 0 36 26 41 40 8z m92 0 c-1 -9 2 -19 8 -23 5 -3 10 3 10 13 0 20 18
32 46 32 8 0 14 -9 14 -20 0 -11 6 -20 14 -20 8 0 18 9 21 20 11 35 35 15 35
-28 -1 -15 -2 -14 -11 2 -9 14 -13 15 -19 6 -5 -8 -34 -14 -78 -15 l-70 -2 -4
29 c-4 25 -2 29 16 26 13 -2 20 -9 18 -20z m238 12 c0 -5 -7 -10 -15 -10 -8 0
-15 -4 -15 -10 0 -19 39 -10 45 10 6 19 25 28 25 13 0 -5 3 -19 6 -33 6 -24 6
-25 -9 -5 -9 11 -17 15 -17 9 0 -20 -43 -24 -62 -7 -11 10 -18 12 -18 5 0 -7
-4 -12 -8 -12 -4 0 -8 9 -8 19 0 11 3 18 6 17 3 -2 14 0 25 5 28 11 45 11 45
-1z m93 2 c3 -4 -3 -17 -13 -29 l-18 -23 -4 30 c-4 24 -1 30 13 30 10 0 20 -3
22 -8z m67 -12 c0 -7 -39 -46 -41 -39 0 2 -2 13 -4 24 -2 11 1 23 7 26 13 8
38 1 38 -11z m70 -2 c0 16 6 22 21 22 16 0 20 -5 16 -20 -3 -11 -1 -22 3 -25
5 -3 10 5 12 17 3 23 38 39 38 18 0 -6 -4 -9 -8 -6 -5 3 -9 -1 -9 -8 0 -8 6
-12 14 -9 7 3 13 0 13 -6 0 -12 -4 -13 -72 -16 -38 -2 -48 0 -48 13 0 12 -3
13 -12 4 -21 -21 -29 -13 -12 14 l17 26 13 -24 13 -23 1 23z m143 14 c4 9 6 9
6 -2 0 -8 -4 -22 -9 -30 -5 -8 -10 -10 -10 -5 0 6 -5 3 -10 -5 -7 -11 -10 -7
-10 19 0 28 2 31 14 22 11 -9 15 -9 19 1z m51 -14 c9 -37 7 -43 -9 -22 -8 11
-15 14 -15 7 0 -7 -4 -13 -10 -13 -6 0 -5 10 2 25 14 31 24 32 32 3z m-1645
-15 c-8 -9 -16 -10 -22 -4 -13 13 0 31 19 24 11 -4 12 -8 3 -20z m541 1 c0
-14 -21 -19 -33 -7 -9 9 13 34 24 27 5 -3 9 -12 9 -20z m32 2 c7 4 8 2 4 -4
-12 -20 -26 -13 -25 11 1 17 2 18 6 4 2 -9 9 -14 15 -11z m48 15 c0 -5 -7 -14
-15 -21 -13 -10 -15 -9 -15 9 0 12 6 21 15 21 8 0 15 -4 15 -9z m-136 -31 c-6
-6 -10 -2 -11 12 -2 16 1 18 10 9 7 -7 8 -14 1 -21z m836 0 c0 -5 -4 -10 -10
-10 -5 0 -10 5 -10 10 0 6 5 10 10 10 6 0 10 -4 10 -10z m-405 -87 c-5 -14 -7
-14 -20 3 -14 18 -14 18 -15 -4 0 -14 -4 -21 -11 -17 -6 4 -7 20 -3 38 8 42
12 44 29 21 14 -18 14 -18 16 6 2 23 2 23 6 -3 3 -16 2 -36 -2 -44z m-62 37
c7 -26 -16 -55 -37 -47 -19 7 -22 53 -3 60 24 10 35 7 40 -13z m-753 -30 c5 0
10 7 14 15 8 22 26 18 26 -5 0 -11 5 -20 11 -20 6 0 9 8 7 18 -4 12 2 17 18
18 22 2 22 1 7 -22 -16 -24 -53 -33 -53 -13 0 8 -5 7 -16 -2 -14 -11 -18 -11
-28 1 -15 21 -36 23 -36 5 0 -8 -5 -15 -11 -15 -6 0 -8 7 -5 16 3 9 6 20 6 26
0 6 7 8 15 4 8 -3 15 0 16 7 0 7 5 2 11 -10 6 -13 14 -23 18 -23z m600 25 c9
5 11 4 6 -3 -4 -7 -2 -12 3 -12 6 0 11 5 11 12 0 6 3 9 6 5 4 -3 4 -14 0 -23
-5 -13 -9 -14 -21 -4 -12 10 -18 10 -29 1 -19 -16 -32 5 -15 25 9 11 14 12 19
3 5 -6 13 -8 20 -4z m73 -5 c-3 -11 -9 -20 -13 -20 -4 0 -10 9 -13 20 -4 15 0
20 13 20 13 0 17 -5 13 -20z m-508 0 c5 -8 11 -7 21 1 19 15 25 9 17 -20 -4
-15 -8 -19 -13 -11 -6 9 -12 9 -27 -1 -11 -7 -28 -9 -38 -5 -17 6 -17 7 0 26
20 22 31 25 40 10z m88 -23 c-18 -11 -25 -5 -17 16 4 13 9 14 19 4 11 -10 10
-14 -2 -20z m92 23 c9 -15 -14 -40 -36 -40 -24 0 -25 26 -1 39 22 13 29 13 37
1z m127 -21 c5 -3 3 -9 -6 -12 -12 -5 -16 0 -15 21 0 16 3 21 6 12 3 -8 10
-18 15 -21z m46 14 c-2 -9 -9 -18 -16 -19 -7 -1 -8 0 -2 3 17 8 11 23 -7 17
-15 -5 -16 -4 -3 5 22 15 32 13 28 -6z m413 5 c0 -10 2 -10 6 0 2 6 19 12 36
11 27 0 29 -2 12 -9 -19 -7 -19 -8 5 -18 25 -9 25 -9 -9 -17 -24 -5 -36 -3
-42 6 -6 10 -9 11 -9 2 0 -22 -18 -14 -23 10 l-4 22 -8 -22 c-4 -13 -12 -23
-17 -23 -6 0 -8 7 -4 15 3 8 1 15 -4 15 -6 0 -10 5 -10 10 0 15 70 12 71 -2z
m139 -8 c0 -24 -26 -38 -42 -22 -8 8 -8 15 2 27 18 21 40 19 40 -5z m50 12 c0
-4 -5 -13 -12 -20 -9 -9 -8 -12 5 -12 9 0 17 -4 17 -9 0 -4 -11 -6 -24 -4 -30
6 -34 53 -5 53 11 0 19 -4 19 -8z m-730 -16 c0 -23 -16 -27 -17 -5 -1 10 2 19
8 19 5 0 9 -6 9 -14z m48 -3 c-3 -19 -28 -31 -28 -13 0 6 5 8 10 5 6 -3 10 -2
10 4 0 5 -6 12 -12 14 -8 3 -5 6 5 6 12 1 17 -5 15 -16z m-68 -157 c0 -3 -4
-8 -10 -11 -5 -3 -10 -1 -10 4 0 6 5 11 10 11 6 0 10 -2 10 -4z m303 -26 c-6
-22 -7 -22 -13 -4 -4 10 -2 22 4 26 15 10 16 6 9 -22z m52 -28 c-5 -22 -8 -24
-15 -11 -6 10 -5 26 3 42 14 32 23 11 12 -31z m-135 22 c0 -14 -21 -19 -33 -7
-9 9 13 34 24 27 5 -3 9 -12 9 -20z m29 11 c1 14 4 16 12 8 13 -13 4 -33 -17
-33 -8 0 -14 9 -13 23 0 21 1 21 9 2 8 -19 9 -19 9 0z m-543 -19 c6 -18 7 -18
24 5 l18 24 7 -28 c4 -15 11 -24 16 -21 6 3 7 15 3 27 -6 19 -5 20 8 10 8 -7
18 -10 21 -6 4 3 7 1 7 -5 0 -11 -38 -42 -52 -42 -5 0 -8 10 -8 23 -1 20 -2
20 -11 5 -11 -19 -39 -25 -39 -8 0 6 -7 10 -15 10 -8 0 -15 -4 -15 -10 0 -5
-4 -10 -9 -10 -4 0 -6 10 -4 23 6 28 40 31 49 3z m234 4 c8 -16 6 -21 -11 -31
-14 -7 -24 -8 -31 -1 -7 7 -16 7 -29 -1 -26 -16 -48 5 -29 28 16 19 50 20 50
0 0 -9 9 -15 23 -15 18 0 19 2 7 10 -8 5 -10 10 -5 10 6 0 3 5 -5 10 -13 8
-13 10 2 10 10 0 22 -9 28 -20z m130 1 c0 -23 -16 -36 -25 -21 -9 14 1 40 15
40 5 0 10 -9 10 -19z m34 -14 c7 -6 6 -7 -4 -4 -8 2 -16 12 -17 23 -2 13 -1
15 4 4 3 -8 11 -19 17 -23z m49 26 c7 -6 -11 -33 -22 -33 -4 0 -7 9 -8 20 -2
19 16 27 30 13z m319 -13 c6 -13 7 -13 7 0 1 10 13 16 34 17 19 2 27 -1 19 -6
-10 -6 -10 -11 3 -21 15 -13 15 -15 -5 -22 -12 -4 -30 -3 -41 2 -13 7 -19 7
-19 0 0 -5 -5 -10 -10 -10 -6 0 -10 7 -8 16 2 10 -3 19 -9 21 -8 3 -14 -5 -14
-19 l-2 -23 -4 23 c-2 12 -9 22 -14 22 -5 0 -9 4 -9 8 0 15 65 7 72 -8z m138
1 c0 -21 -23 -45 -33 -34 -12 11 -8 41 6 46 22 9 27 7 27 -12z m46 7 c4 -6 2
-14 -4 -16 -18 -6 -14 -22 5 -22 9 0 14 -3 10 -6 -3 -3 -15 -3 -27 1 -21 7
-21 7 -3 28 17 19 17 20 0 14 -11 -4 -16 -3 -12 3 8 13 22 13 31 -2z m-631
-18 c0 -22 -21 -22 -22 1 -1 12 3 19 10 16 7 -2 12 -10 12 -17z m295 -20 c0
-5 -4 -10 -10 -10 -5 0 -10 5 -10 10 0 6 5 10 10 10 6 0 10 -4 10 -10z m-554
-140 c-1 -16 -4 -30 -8 -30 -10 0 -10 22 -2 44 9 23 11 20 10 -14z m861 -6
c-9 -18 -16 -23 -21 -15 -6 9 -11 9 -21 1 -10 -8 -14 -5 -17 14 -4 17 -1 23 6
18 22 -13 44 -11 50 5 4 9 9 13 12 10 3 -3 -1 -18 -9 -33z m-905 1 c-2 -14 -9
-25 -14 -25 -6 0 -8 6 -5 14 3 7 0 19 -6 25 -8 8 -6 11 10 11 16 0 19 -5 15
-25z m139 16 c-9 -6 -10 -11 -2 -15 6 -4 11 -13 11 -19 0 -7 -4 -6 -10 3 -9
13 -11 13 -20 0 -8 -12 -10 -10 -10 10 0 20 5 26 22 27 16 2 19 0 9 -6z m52 2
c-20 -8 -16 -33 5 -27 14 5 15 4 2 -5 -23 -16 -30 -13 -30 14 0 17 5 25 18 24
10 0 12 -3 5 -6z m71 -1 c-7 -4 -14 -16 -16 -27 -3 -17 -5 -15 -10 8 -4 23 -2
27 16 27 13 0 16 -3 10 -8z m44 -29 c-6 -7 -16 -13 -22 -13 -7 0 -6 3 2 8 8 5
10 16 5 27 -6 17 -5 18 9 5 11 -11 13 -19 6 -27z m92 24 c0 -7 -5 -18 -12 -25
-15 -15 -39 3 -31 24 7 18 43 19 43 1z m50 -29 c0 -10 -3 -9 -10 2 -9 13 -11
13 -21 0 -9 -13 -10 -12 -5 3 3 10 6 23 6 29 0 5 7 3 15 -6 8 -8 15 -21 15
-28z m68 5 c-6 -7 -16 -13 -22 -13 -7 0 -6 3 2 8 8 5 10 16 5 27 -6 17 -5 18
9 5 11 -11 13 -19 6 -27z m42 17 c-6 -11 -13 -20 -16 -20 -2 0 0 9 6 20 6 11
13 20 16 20 2 0 0 -9 -6 -20z m96 -5 c0 -14 -4 -25 -8 -25 -10 0 -11 34 -1 43
9 10 9 10 9 -18z m104 -7 c0 -5 -4 -7 -9 -4 -5 4 -12 0 -14 -6 -3 -7 -6 0 -6
16 -1 24 1 27 14 16 8 -7 15 -17 15 -22z m66 21 c9 -15 -18 -40 -34 -30 -15 9
-5 41 13 41 8 0 17 -5 21 -11z m-249 -31 c-3 -8 -6 -5 -6 6 -1 11 2 17 5 13 3
-3 4 -12 1 -19z m-487 -4 c0 -2 -7 -4 -15 -4 -8 0 -15 4 -15 10 0 5 7 7 15 4
8 -4 15 -8 15 -10z m136 -134 c0 -11 -6 -20 -13 -20 -7 0 -13 9 -13 20 0 11 6
20 13 20 7 0 13 -9 13 -20z m74 8 c0 -5 5 -8 11 -8 5 0 7 6 3 13 -5 8 -2 8 9
-2 11 -9 17 -10 17 -2 0 6 10 11 23 10 12 0 17 -3 10 -5 -7 -3 -9 -12 -6 -20
4 -11 -3 -14 -33 -12 -22 2 -42 7 -46 13 -5 6 -12 5 -20 -3 -6 -6 -16 -12 -22
-12 -5 0 -1 7 10 16 17 14 17 15 1 10 -10 -3 -16 -2 -13 3 7 11 56 9 56 -1z
m110 2 c-13 -9 -13 -11 0 -20 12 -8 11 -10 -7 -10 -25 0 -26 1 -17 24 3 9 14
16 23 16 14 0 14 -2 1 -10z m46 -2 c5 -7 2 -8 -7 -3 -12 7 -12 6 -1 -6 11 -12
15 -11 26 4 13 17 14 17 21 0 7 -17 8 -17 15 2 6 13 9 15 9 5 1 -12 3 -12 10
-2 6 10 9 8 13 -10 4 -19 0 -23 -19 -22 -12 0 -26 4 -30 7 -3 4 -12 2 -18 -3
-18 -15 -45 -1 -45 21 0 21 15 25 26 7z m180 -6 c10 -15 8 -18 -12 -20 -23 -2
-33 16 -17 31 10 11 17 8 29 -11z m39 0 c3 -8 3 -17 0 -20 -3 -3 -5 0 -5 6 0
7 -7 12 -15 12 -8 0 -15 4 -15 8 0 15 29 9 35 -6z m-91 -23 c-6 -11 -24 -2
-24 11 0 5 7 7 15 4 8 -4 12 -10 9 -15z m-573 -39 c13 -7 19 -7 19 0 0 17 17
11 23 -9 4 -15 -1 -18 -22 -17 -14 0 -32 8 -39 16 -12 13 -13 12 -7 -5 5 -15
3 -17 -6 -8 -6 6 -8 16 -5 22 9 14 12 14 37 1z m120 -5 c8 19 9 19 6 1 -3 -29
-27 -33 -26 -4 1 20 2 21 7 3 l5 -20 8 20z m43 4 c11 17 25 13 22 -6 -4 -27
-46 -26 -46 1 0 16 3 17 9 7 6 -9 11 -10 15 -2z m106 -10 c0 -11 -5 -19 -11
-19 -5 0 -8 4 -5 9 7 10 -24 25 -33 16 -3 -3 1 -10 9 -15 9 -6 10 -10 3 -10
-15 0 -26 17 -19 29 3 5 17 9 31 9 18 0 25 -6 25 -19z m30 1 c0 -11 -4 -20 -8
-20 -4 0 -8 9 -9 20 -1 11 2 20 8 20 5 0 9 -9 9 -20z m34 -18 c-21 -5 -26 2
-18 22 6 15 7 15 20 -1 11 -15 10 -19 -2 -21z m35 21 c9 -17 10 -17 17 0 5 15
9 16 15 5 7 -10 9 -10 9 2 0 13 1 13 10 0 16 -24 12 -28 -25 -27 -20 1 -35 6
-35 13 0 7 -6 15 -12 17 -10 4 -10 6 -1 6 7 1 16 -7 22 -16z m148 2 c5 -4 2
-5 -6 0 -9 5 -12 4 -7 -3 10 -16 39 -15 33 1 -3 8 7 12 28 13 24 1 32 -3 31
-14 -4 -23 -26 -27 -26 -5 -1 17 -1 17 -11 1 -6 -11 -22 -18 -39 -18 -21 0
-30 5 -31 18 -1 16 -2 16 -6 0 -6 -24 -18 -23 -20 2 -1 16 3 20 22 17 13 -1
28 -7 32 -12z m123 6 c0 -9 -20 -37 -20 -29 0 3 -2 13 -5 21 -4 8 0 14 10 14
8 0 15 -3 15 -6z m42 -17 c-7 -12 -11 -13 -17 -4 -4 7 -2 16 6 21 18 11 23 4
11 -17z m31 6 c-3 -11 -9 -20 -14 -20 -11 0 -11 3 -3 24 9 23 23 20 17 -4z
m90 3 c14 -17 14 -18 -9 -19 -13 -1 -24 3 -24 10 0 7 -3 7 -8 1 -12 -17 -32
-16 -32 1 0 9 6 14 13 11 8 -3 20 -1 28 4 8 5 14 9 15 9 0 0 8 -8 17 -17z m62
-4 c3 -21 -16 -19 -37 2 -16 17 -15 18 9 16 15 -1 27 -9 28 -18z m27 -11 c-7
-7 -10 -5 -7 8 5 29 6 30 12 16 3 -8 1 -18 -5 -24z m-802 18 c0 -2 -7 -9 -15
-16 -12 -10 -15 -10 -15 4 0 9 7 16 15 16 8 0 15 -2 15 -4z m-283 -71 c0 -7
-9 -13 -19 -12 -10 1 -18 6 -18 12 0 6 8 11 18 12 10 1 19 -5 19 -12z m37 0
c3 -9 0 -15 -9 -15 -9 0 -12 6 -9 15 4 8 7 15 9 15 2 0 5 -7 9 -15z m56 3 c0
-9 3 -9 12 0 16 16 51 16 46 0 -2 -6 -10 -14 -18 -16 -7 -3 -10 0 -6 7 4 6 2
11 -3 11 -6 0 -11 -4 -11 -10 0 -5 -7 -10 -15 -10 -8 0 -15 6 -15 13 0 9 -2 9
-9 -1 -7 -11 -9 -11 -14 2 -5 11 -1 16 13 16 11 0 20 -5 20 -12z m87 -3 c0 -8
-6 -15 -13 -15 -8 0 -11 6 -8 15 4 8 9 15 13 15 4 0 8 -7 8 -15z m68 6 c3 -5
1 -12 -4 -15 -5 -4 -12 0 -14 6 -4 10 -7 10 -15 0 -7 -11 -10 -11 -15 2 -5 12
0 16 18 16 13 0 26 -4 30 -9z m39 -5 c-3 -8 -13 -17 -22 -21 -13 -5 -13 -2 3
15 21 24 26 25 19 6z m79 0 c3 -7 -9 -11 -29 -12 -32 -1 -42 5 -29 18 10 10
54 6 58 -6z m40 -1 c-3 -9 -8 -14 -10 -11 -3 3 -2 9 2 15 9 16 15 13 8 -4z
m50 2 c3 -8 -3 -13 -14 -13 -11 0 -19 6 -19 13 0 7 6 13 14 13 8 0 16 -6 19
-13z m60 -4 c-4 -11 -8 -13 -11 -5 -3 10 -7 10 -18 1 -11 -9 -14 -8 -14 5 0
10 9 16 25 16 19 0 23 -4 18 -17z m79 5 c6 -10 10 -10 17 0 7 11 9 11 14 -2 5
-12 0 -16 -23 -16 -17 0 -30 5 -30 10 0 6 -4 10 -10 10 -5 0 -7 -7 -4 -15 5
-11 2 -13 -10 -9 -9 3 -16 11 -16 18 0 16 52 19 62 4z m72 -3 c-4 -8 -7 -15
-9 -15 -2 0 -5 7 -9 15 -3 9 0 15 9 15 9 0 12 -6 9 -15z m89 -5 c3 -13 0 -16
-14 -13 -11 3 -19 9 -19 14 0 5 -4 9 -10 9 -5 0 -7 -6 -4 -13 3 -8 -3 -13 -15
-13 -18 0 -19 2 -5 17 20 22 61 21 67 -1z m37 8 c0 6 6 12 14 12 17 0 29 -26
13 -27 -7 0 -18 -2 -26 -4 -9 -2 -16 4 -18 16 -3 16 -2 17 6 5 7 -10 11 -11
11 -2z m80 8 c0 -2 -8 -10 -17 -17 -16 -13 -17 -12 -4 4 13 16 21 21 21 13z
m57 -12 c0 -6 -10 -11 -22 -10 -13 0 -20 6 -18 13 6 15 40 13 40 -3z m145 2
c5 -8 8 -7 8 2 0 6 5 12 11 12 5 0 8 -4 5 -9 -4 -5 0 -12 6 -14 7 -3 -1 -6
-19 -6 -17 -1 -34 5 -36 12 -4 9 -8 8 -16 -3 -10 -13 -12 -13 -21 0 -9 13 -11
13 -20 0 -6 -10 -10 -11 -10 -2 0 6 -7 12 -16 12 -8 0 -12 -4 -9 -10 3 -5 1
-10 -4 -10 -6 0 -11 7 -11 15 0 12 13 14 63 13 34 -1 65 -6 69 -12z m98 -6
c13 -24 7 -26 -15 -3 -14 14 -18 14 -26 2 -7 -11 -9 -11 -9 4 0 24 37 22 50
-3z m37 -1 c2 -16 -1 -19 -9 -11 -5 5 -7 15 -4 21 10 15 12 14 13 -10z m83 12
c0 -14 -37 -20 -51 -7 -9 8 -10 8 -5 -1 4 -7 2 -13 -3 -13 -12 0 -14 13 -4 23
10 10 63 8 63 -2z m-1478 -70 c7 11 11 11 15 2 7 -18 24 -16 17 2 -4 8 -1 15
6 15 6 0 10 -8 8 -17 -2 -12 -13 -18 -33 -19 -34 -1 -58 13 -49 28 4 6 11 3
17 -7 8 -14 11 -15 19 -4z m171 5 c2 -6 -5 -12 -17 -13 -11 -1 -38 -4 -58 -6
-33 -4 -36 -3 -28 12 10 20 96 26 103 7z m28 -9 c-10 -9 -11 -8 -5 6 3 10 9
15 12 12 3 -3 0 -11 -7 -18z m53 8 c-4 -8 -7 -15 -9 -15 -2 0 -5 7 -9 15 -3 9
0 15 9 15 9 0 12 -6 9 -15z m76 4 c0 -8 6 -7 17 2 11 10 14 10 9 2 -4 -8 -2
-13 6 -13 10 0 10 -2 -1 -9 -16 -10 -39 -4 -59 16 -11 11 -10 13 7 13 12 0 21
-5 21 -11z m114 -1 c5 -10 7 -10 12 0 5 10 10 9 21 -5 13 -17 14 -17 9 0 -3 9
-1 17 4 17 14 0 13 -27 -1 -36 -6 -3 -14 -2 -18 2 -3 5 -18 9 -33 9 -16 -1
-28 3 -28 7 0 15 -19 8 -23 -9 -4 -14 -5 -12 -6 5 -1 18 4 22 28 22 16 0 32
-6 35 -12z m86 -8 c-6 -11 -12 -20 -13 -20 -2 0 -3 9 -3 20 0 11 6 20 13 20
11 0 11 -5 3 -20z m21 -13 c-8 -8 -11 -7 -11 4 0 20 13 34 18 19 3 -7 -1 -17
-7 -23z m49 19 c0 -8 6 -17 13 -19 7 -3 5 -6 -5 -6 -10 -1 -22 8 -28 19 -9 16
-8 20 5 20 8 0 15 -6 15 -14z m46 -6 c0 -12 -4 -16 -9 -11 -5 5 -6 14 -3 20
10 15 12 14 12 -9z m44 13 c-1 -18 -18 -35 -24 -24 -4 6 -4 16 -1 21 7 12 25
13 25 3z m77 -10 c0 -7 -3 -13 -6 -14 -3 0 -16 -2 -28 -5 -27 -5 -30 4 -7 21
22 16 41 15 41 -2z m33 -3 c-6 -11 -13 -20 -16 -20 -2 0 0 9 6 20 6 11 13 20
16 20 2 0 0 -9 -6 -20z m35 10 c-3 -5 3 -10 15 -10 14 0 19 4 14 13 -6 9 -4 9
7 1 16 -12 29 -12 47 -1 6 5 12 4 12 -2 0 -5 -4 -12 -9 -16 -17 -10 -91 -13
-97 -4 -5 9 3 29 12 29 3 0 2 -4 -1 -10z m128 -6 c-4 -11 -33 -28 -33 -20 0
15 13 33 24 33 8 0 12 -6 9 -13z m30 -4 c-3 -11 -7 -20 -9 -20 -2 0 -4 9 -4
20 0 11 4 20 9 20 5 0 7 -9 4 -20z m48 11 c-7 -5 -11 -13 -7 -19 4 -6 -2 -8
-13 -5 -25 6 -17 28 12 30 15 2 18 0 8 -6z m122 -6 c4 -9 -1 -11 -15 -7 -12 3
-19 1 -15 -4 3 -5 -14 -9 -38 -10 -24 0 -42 3 -39 8 3 4 18 6 34 4 30 -3 42 8
18 17 -7 2 1 4 19 5 17 0 34 -5 36 -13z m81 0 c-4 -8 -7 -15 -9 -15 -2 0 -5 7
-9 15 -3 9 0 15 9 15 9 0 12 -6 9 -15z m35 -3 c7 -14 6 -19 -4 -19 -7 0 -13 9
-12 19 1 10 2 18 4 18 1 0 7 -8 12 -18z m41 7 c0 -8 4 -8 14 0 10 9 15 8 19
-3 7 -17 -10 -25 -35 -18 -22 5 -32 32 -13 32 8 0 15 -5 15 -11z m113 -4 c4
-6 10 -5 16 3 7 11 9 11 14 -1 5 -12 -1 -14 -26 -10 -18 3 -40 5 -49 5 -10 -1
-18 4 -18 9 0 13 52 8 63 -6z m54 -7 c-3 -8 -6 -5 -6 6 -1 11 2 17 5 13 3 -3
4 -12 1 -19z m63 7 c0 -18 -20 -20 -21 -2 0 6 -4 3 -8 -7 -7 -19 -8 -19 -13 2
-5 18 -2 22 18 22 15 0 24 -6 24 -15z m40 0 c0 -21 28 -19 33 3 4 15 5 15 6 0
1 -22 -14 -31 -39 -23 -20 6 -28 35 -10 35 6 0 10 -7 10 -15z m67 0 c0 -8 -4
-15 -9 -15 -4 0 -8 7 -8 15 0 8 4 15 8 15 5 0 9 -7 9 -15z m-1360 -22 c-8 -7
-37 9 -31 19 3 5 12 4 20 -3 8 -6 13 -14 11 -16z m-144 -70 c-7 -18 -22 -16
-30 3 -7 19 18 38 28 22 4 -6 5 -17 2 -25z m32 16 c-6 -33 -15 -36 -15 -6 0
15 4 27 9 27 6 0 8 -10 6 -21z m37 -4 c-5 -31 -20 -33 -16 -2 3 28 2 27 13 27
4 0 6 -11 3 -25z m47 -12 c14 -11 13 -12 -9 -9 -14 1 -24 6 -22 9 1 4 2 15 3
25 0 13 2 14 6 2 4 -8 13 -21 22 -27z m36 15 c-6 -22 -6 -22 14 2 16 20 21 22
21 8 0 -21 -36 -43 -45 -28 -7 12 0 40 10 40 4 0 4 -10 0 -22z m125 2 c0 -11
5 -20 10 -20 6 0 10 6 10 14 0 8 5 18 11 22 8 4 9 -1 4 -16 -5 -17 -4 -21 5
-15 9 5 11 4 6 -4 -7 -11 -76 -12 -76 -1 0 3 6 12 13 19 10 11 10 13 0 7 -7
-4 -13 -2 -13 3 0 6 7 11 15 11 8 0 15 -9 15 -20z m85 11 c-3 -5 -1 -12 4 -16
5 -3 14 3 20 12 10 17 10 17 11 1 0 -10 7 -18 15 -18 8 0 15 -4 15 -8 0 -5 -7
-9 -15 -9 -8 0 -15 4 -15 9 0 5 -6 6 -12 1 -25 -15 -46 -13 -44 5 0 9 6 20 11
24 14 10 17 10 10 -1z m165 -2 c0 -5 -4 -7 -10 -4 -5 3 -7 0 -4 -8 3 -8 1 -18
-5 -22 -12 -7 -15 27 -4 38 10 10 23 8 23 -4z m40 -29 c4 0 6 9 3 19 -4 17 0
19 36 18 30 -2 40 -6 36 -15 -3 -8 -5 -18 -5 -23 0 -5 -4 -9 -10 -9 -5 0 -10
6 -10 14 0 8 -7 16 -15 20 -13 4 -13 2 -5 -14 9 -16 7 -19 -12 -18 -13 1 -29
6 -35 11 -9 6 -13 5 -13 -3 0 -8 -3 -11 -6 -8 -3 4 0 17 7 30 l14 23 3 -22 c2
-13 7 -23 12 -23z m146 25 c-3 -8 0 -15 6 -15 26 0 -4 -13 -36 -15 -29 -3 -33
-1 -28 17 3 13 8 16 15 9 6 -6 14 -5 24 5 19 18 27 18 19 -1z m49 5 c4 -6 1
-18 -6 -26 -12 -14 -14 -14 -20 3 -10 29 11 47 26 23z m170 -20 c-5 -17 -10
-19 -21 -9 -11 9 -14 8 -14 -2 0 -11 -2 -11 -10 1 -15 24 -12 29 15 24 15 -3
25 0 25 7 0 7 3 10 6 6 3 -3 3 -15 -1 -27z m28 14 c-6 -15 -4 -15 19 0 23 15
27 15 41 1 17 -16 32 -21 23 -6 -3 5 1 12 10 15 12 5 15 2 10 -10 -3 -8 -6
-20 -6 -24 0 -5 -14 -8 -30 -7 -19 1 -28 6 -25 15 2 6 -3 12 -11 12 -10 0 -14
-6 -11 -14 4 -10 0 -14 -14 -13 -18 1 -26 26 -12 40 11 11 13 8 6 -9z m184 -4
c1 -11 -2 -22 -6 -25 -7 -3 -8 31 -2 43 3 7 7 0 8 -18z m53 0 c-8 -5 -11 -12
-7 -16 4 -4 17 3 28 15 15 16 24 20 32 12 8 -8 8 -14 -1 -23 -15 -15 -60 -19
-68 -7 -7 11 16 42 25 34 3 -3 -1 -10 -9 -15z m147 0 c-1 -22 -1 -22 -37 -24
-18 -1 -25 5 -27 19 l-3 20 9 -20 c9 -18 12 -17 10 3 0 4 10 10 23 14 13 3 24
6 25 7 1 1 1 -8 0 -19z m-1117 -24 c0 -3 -9 -6 -20 -6 -22 0 -23 1 -14 24 5
13 8 13 20 1 8 -7 14 -16 14 -19z m243 27 c-20 -7 -15 -23 5 -17 9 2 7 -1 -6
-7 -12 -7 -25 -10 -27 -7 -10 10 7 38 24 37 10 0 11 -2 4 -6z m390 -13 c-3
-11 -7 -20 -8 -20 -1 0 -5 9 -8 20 -3 12 0 20 8 20 8 0 11 -8 8 -20z m249 -2
c-4 -16 -7 -18 -10 -8 -3 8 -10 18 -16 22 -6 5 -2 8 11 8 17 0 20 -4 15 -22z
m-332 -18 c0 -5 -2 -10 -4 -10 -3 0 -8 5 -11 10 -3 6 -1 10 4 10 6 0 11 -4 11
-10z m-720 -94 c0 -11 -19 -15 -25 -6 -3 5 1 10 9 10 9 0 16 -2 16 -4z m30 -6
c0 -5 -2 -10 -4 -10 -3 0 -8 5 -11 10 -3 6 -1 10 4 10 6 0 11 -4 11 -10z m50
0 c0 -5 -2 -10 -4 -10 -3 0 -8 5 -11 10 -3 6 -1 10 4 10 6 0 11 -4 11 -10z
m-106 -19 c4 -5 -3 -7 -14 -4 -23 6 -26 13 -6 13 8 0 17 -4 20 -9z m105 -36
c0 -11 -3 -14 -6 -7 -2 6 -16 12 -29 12 -14 0 -23 3 -21 8 3 4 17 7 31 7 20 0
26 -5 25 -20z m127 -26 c0 -10 -3 -19 -6 -20 -43 -6 -58 -3 -57 13 1 21 8 23
26 6 11 -11 13 -10 9 2 -4 10 0 16 11 17 10 1 17 -6 17 -18z m68 -2 c-7 -18
-41 -19 -48 -1 -3 8 3 11 20 8 14 -3 24 0 24 7 0 7 2 10 5 7 3 -3 3 -12 -1
-21z m56 8 c0 -8 9 -15 20 -15 11 0 20 7 20 15 0 17 16 20 25 5 3 -5 0 -10 -7
-10 -9 0 -9 -3 2 -10 8 -5 12 -10 8 -11 -27 -4 -55 -2 -66 5 -6 4 -16 5 -21 2
-5 -4 -7 3 -4 14 6 23 23 27 23 5z m165 -14 c5 -13 4 -14 -6 -3 -15 14 -43 17
-35 3 3 -5 -3 -11 -14 -14 -22 -6 -48 17 -30 28 5 3 10 1 10 -4 0 -6 4 -11 10
-11 5 0 7 6 4 13 -4 10 3 13 25 9 16 -2 32 -11 36 -21z m58 -7 c-4 -10 -8 -10
-18 -1 -9 9 -10 16 -2 25 12 16 28 -3 20 -24z m88 11 c1 -20 1 -20 7 0 5 13
17 21 33 22 24 1 26 0 15 -23 -8 -16 -12 -19 -14 -9 -4 20 -22 19 -22 0 0 -16
-16 -20 -24 -6 -3 5 -15 7 -26 4 -19 -5 -29 15 -14 30 14 13 44 2 45 -18z
m119 5 c0 -15 -28 -32 -35 -20 -3 5 -1 10 5 10 7 0 10 7 7 14 -4 10 -1 13 9 9
7 -3 14 -9 14 -13z m32 -4 c-2 -9 3 -16 9 -16 7 0 10 -2 7 -5 -3 -3 -13 -3
-22 1 -19 7 -23 48 -3 41 6 -2 11 -11 9 -21z m53 4 c0 -7 -6 -14 -13 -16 -7
-1 -8 0 -2 3 17 8 11 23 -7 16 -11 -4 -14 -3 -9 6 10 15 31 9 31 -9z m60 1 c6
-14 8 -13 21 3 8 11 14 15 14 9 0 -6 3 -20 6 -30 4 -14 4 -15 -4 -4 -5 7 -15
10 -22 6 -7 -4 -16 -2 -20 6 -7 10 -11 10 -23 0 -13 -10 -15 -9 -10 7 6 23 30
25 38 3z m80 9 c5 -8 11 -7 21 1 11 9 17 9 28 0 11 -9 15 -9 19 1 3 7 6 3 6
-9 1 -14 -5 -23 -14 -23 -8 0 -15 7 -15 15 0 17 -16 20 -25 5 -3 -5 -1 -10 4
-10 6 0 11 -4 11 -8 0 -7 -12 -8 -51 -3 -4 1 -9 10 -12 21 -5 21 16 29 28 10z
m-907 -35 c0 -14 -5 -28 -11 -32 -6 -3 -7 -1 -3 6 4 6 2 19 -6 28 -9 12 -9 15
0 9 6 -4 12 -2 12 3 0 6 2 11 4 11 2 0 4 -11 4 -25z m-101 -17 c-3 -8 -6 -5
-6 6 -1 11 2 17 5 13 3 -3 4 -12 1 -19z m46 -15 c-7 -2 -19 -2 -25 0 -7 3 -2
5 12 5 14 0 19 -2 13 -5z"/>
<path d="M431 2839 c-15 -43 -14 -47 10 -59 27 -15 49 3 49 39 0 55 -42 68
-59 20z"/>
<path d="M958 2831 c-26 -25 -24 -61 2 -54 11 3 20 8 21 12 0 3 2 18 4 34 4
31 -3 33 -27 8z"/>
<path d="M1120 2858 c-24 -22 -24 -23 -4 -26 33 -5 74 15 68 33 -9 22 -36 19
-64 -7z"/>
<path d="M1307 2862 c-25 -28 -21 -32 28 -32 45 0 51 5 37 26 -14 22 -48 25
-65 6z"/>
<path d="M1683 2795 c-3 -9 -3 -19 1 -22 9 -10 59 10 64 25 6 18 -57 16 -65
-3z"/>
<path d="M1917 2832 c-22 -24 -22 -58 1 -64 31 -8 42 3 42 43 0 43 -16 51 -43
21z"/>
<path d="M680 1745 c0 -8 5 -15 10 -15 6 0 10 7 10 15 0 8 -4 15 -10 15 -5 0
-10 -7 -10 -15z"/>
<path d="M1140 1749 c0 -5 5 -7 10 -4 6 3 10 8 10 11 0 2 -4 4 -10 4 -5 0 -10
-5 -10 -11z"/>
<path d="M1895 1650 c-3 -5 -1 -10 4 -10 6 0 11 5 11 10 0 6 -2 10 -4 10 -3 0
-8 -4 -11 -10z"/>
<path d="M1796 1561 c-4 -5 -2 -12 3 -15 5 -4 12 -2 15 3 4 5 2 12 -3 15 -5 4
-12 2 -15 -3z"/>
<path d="M605 1550 c-3 -5 1 -10 9 -10 9 0 16 5 16 10 0 6 -4 10 -9 10 -6 0
-13 -4 -16 -10z"/>
<path d="M1556 1561 c-4 -7 -5 -15 -2 -18 9 -9 19 4 14 18 -4 11 -6 11 -12 0z"/>
<path d="M1000 1549 c0 -5 5 -7 10 -4 6 3 10 8 10 11 0 2 -4 4 -10 4 -5 0 -10
-5 -10 -11z"/>
<path d="M1545 1490 c-3 -5 -1 -10 4 -10 6 0 11 5 11 10 0 6 -2 10 -4 10 -3 0
-8 -4 -11 -10z"/>
<path d="M1145 1470 c-3 -5 -1 -10 4 -10 6 0 11 5 11 10 0 6 -2 10 -4 10 -3 0
-8 -4 -11 -10z"/>
<path d="M750 1374 c0 -17 22 -14 28 4 2 7 -3 12 -12 12 -9 0 -16 -7 -16 -16z"/>
<path d="M386 1365 c7 -17 54 -21 54 -4 0 5 -4 7 -10 4 -5 -3 -19 -1 -30 5
-16 9 -18 8 -14 -5z"/>
<path d="M1150 1369 c0 -5 5 -7 10 -4 6 3 10 8 10 11 0 2 -4 4 -10 4 -5 0 -10
-5 -10 -11z"/>
<path d="M1680 1364 c0 -8 5 -12 10 -9 6 3 10 10 10 16 0 5 -4 9 -10 9 -5 0
-10 -7 -10 -16z"/>
<path d="M1430 1364 c0 -8 5 -12 10 -9 6 3 10 10 10 16 0 5 -4 9 -10 9 -5 0
-10 -7 -10 -16z"/>
<path d="M1530 1364 c0 -8 5 -12 10 -9 6 3 10 10 10 16 0 5 -4 9 -10 9 -5 0
-10 -7 -10 -16z"/>
<path d="M400 1259 c0 -5 5 -7 10 -4 6 3 10 8 10 11 0 2 -4 4 -10 4 -5 0 -10
-5 -10 -11z"/>
<path d="M1150 1280 c0 -5 5 -10 10 -10 6 0 10 5 10 10 0 6 -4 10 -10 10 -5 0
-10 -4 -10 -10z"/>
<path d="M1355 1270 c-3 -5 -1 -10 4 -10 6 0 11 5 11 10 0 6 -2 10 -4 10 -3 0
-8 -4 -11 -10z"/>
<path d="M1513 1283 c-18 -7 -16 -23 2 -23 8 0 15 7 15 15 0 8 -1 15 -2 14 -2
0 -9 -3 -15 -6z"/>
<path d="M1005 1270 c-3 -5 -1 -10 4 -10 6 0 11 5 11 10 0 6 -2 10 -4 10 -3 0
-8 -4 -11 -10z"/>
<path d="M1307 1193 c-12 -11 -8 -23 8 -23 8 0 15 7 15 15 0 16 -12 20 -23 8z"/>
<path d="M1150 1179 c0 -5 5 -7 10 -4 6 3 10 8 10 11 0 2 -4 4 -10 4 -5 0 -10
-5 -10 -11z"/>
<path d="M720 1170 c0 -5 4 -10 9 -10 6 0 13 5 16 10 3 6 -1 10 -9 10 -9 0
-16 -4 -16 -10z"/>
<path d="M895 1170 c-3 -5 1 -10 9 -10 9 0 16 5 16 10 0 6 -4 10 -9 10 -6 0
-13 -4 -16 -10z"/>
<path d="M1630 1174 c0 -8 5 -12 10 -9 6 3 10 10 10 16 0 5 -4 9 -10 9 -5 0
-10 -7 -10 -16z"/>
<path d="M1155 990 c-3 -5 -1 -10 4 -10 6 0 11 5 11 10 0 6 -2 10 -4 10 -3 0
-8 -4 -11 -10z"/>
<path d="M815 969 c-9 -14 -2 -20 14 -10 8 6 9 11 3 15 -6 3 -14 1 -17 -5z"/>
<path d="M1540 970 c0 -5 5 -10 10 -10 6 0 10 5 10 10 0 6 -4 10 -10 10 -5 0
-10 -4 -10 -10z"/>
<path d="M1045 811 c-6 -11 9 -23 19 -14 9 9 7 23 -3 23 -6 0 -12 -4 -16 -9z"/>
<path d="M1475 811 c-6 -11 9 -23 19 -14 9 9 7 23 -3 23 -6 0 -12 -4 -16 -9z"/>
<path d="M395 450 c3 -5 8 -10 11 -10 2 0 4 5 4 10 0 6 -5 10 -11 10 -5 0 -7
-4 -4 -10z"/>
<path d="M440 369 c0 -5 5 -7 10 -4 6 3 10 8 10 11 0 2 -4 4 -10 4 -5 0 -10
-5 -10 -11z"/>
<path d="M1690 369 c0 -5 5 -7 10 -4 6 3 10 8 10 11 0 2 -4 4 -10 4 -5 0 -10
-5 -10 -11z"/>
<path d="M1496 167 c3 -10 9 -15 12 -12 3 3 0 11 -7 18 -10 9 -11 8 -5 -6z"/>
</g>
</svg>
