<?xml version="1.0" standalone="no"?>
<!DOCTYPE svg PUBLIC "-//W3C//DTD SVG 20010904//EN"
 "http://www.w3.org/TR/2001/REC-SVG-20010904/DTD/svg10.dtd">
<svg version="1.0" xmlns="http://www.w3.org/2000/svg"
 width="500.000000pt" height="250.000000pt" viewBox="0 0 500.000000 250.000000"
 preserveAspectRatio="xMidYMid meet">

<g transform="translate(0.000000,250.000000) scale(0.100000,-0.100000)"
fill="#000000" stroke="none">
<path d="M0 1250 l0 -1250 2500 0 2500 0 0 1250 0 1250 -2500 0 -2500 0 0
-1250z m2348 905 c-3 -3 -9 2 -12 12 -6 14 -5 15 5 6 7 -7 10 -15 7 -18z m932
-15 l0 -29 -117 -3 -118 -3 -3 -37 -3 -38 115 0 116 0 0 -30 0 -30 -115 0
-115 0 0 -45 0 -45 120 0 120 0 0 -30 0 -30 -165 0 -165 0 0 175 0 175 165 0
165 0 0 -30z m223 -80 c26 -60 47 -114 47 -120 0 -34 23 5 65 110 28 67 55
120 62 120 9 0 13 -18 13 -62 0 -50 -9 -86 -42 -175 l-43 -113 -40 0 -41 0
-38 93 c-21 50 -47 110 -57 132 l-17 40 -1 -132 -1 -133 -45 0 -45 0 0 175 0
175 68 0 69 0 46 -110z m317 -65 l0 -175 -45 0 -45 0 0 175 0 175 45 0 45 0 0
-175z m130 60 c47 -63 89 -115 93 -115 5 0 7 52 5 115 l-3 115 45 0 45 0 0
-175 0 -175 -55 1 -55 0 -84 112 c-83 111 -84 112 -85 175 0 34 1 62 4 62 3 0
44 -52 90 -115z m550 -60 l0 -175 -165 0 -165 0 0 30 0 29 118 3 117 3 0 40 0
40 -112 3 -113 3 0 29 0 29 113 3 112 3 0 35 0 35 -117 3 -118 3 0 29 0 30
165 0 165 0 0 -175z m111 59 c25 -63 49 -115 53 -115 5 0 23 35 41 78 18 43
40 95 49 116 l16 37 70 0 70 0 0 -175 0 -175 -45 0 -44 0 -4 133 c-1 76 -6
123 -10 112 -5 -11 -29 -69 -56 -130 l-47 -110 -41 -3 -41 -3 -41 106 c-34 88
-41 119 -41 176 0 49 4 69 13 69 6 0 33 -52 58 -116z m-2269 -12 c-7 -39 -6
-49 4 -45 7 2 20 -8 29 -24 14 -23 15 -24 12 -5 -4 14 0 22 9 22 8 0 14 -4 14
-10 0 -5 7 -10 16 -10 12 0 15 -6 10 -26 -7 -25 -6 -26 10 -9 16 16 19 16 29
1 7 -9 24 -16 39 -16 14 0 26 -5 26 -11 0 -6 -7 -9 -15 -5 -8 3 -15 1 -15 -4
0 -6 5 -10 11 -10 5 0 7 -4 4 -10 -3 -5 -1 -10 5 -10 12 0 30 41 23 53 -5 9 0
9 21 1 9 -3 16 -11 16 -16 0 -6 -7 -7 -16 -4 -9 3 -12 2 -9 -4 4 -6 12 -10 18
-9 7 1 25 -3 40 -9 26 -11 27 -13 13 -28 -9 -8 -16 -20 -16 -25 0 -12 17 -12
23 1 3 6 4 5 3 -2 -2 -7 4 -21 12 -31 15 -16 14 -17 -4 -11 -10 4 -22 12 -26
18 -5 7 -8 5 -8 -6 0 -9 6 -19 13 -21 9 -4 8 -8 -3 -16 -8 -6 -10 -11 -4 -11
5 0 15 5 21 11 8 8 13 5 18 -10 3 -12 13 -21 21 -21 8 0 12 5 9 10 -3 6 1 10
9 10 9 0 19 0 24 1 4 1 6 -13 4 -30 -3 -22 1 -31 11 -31 10 0 13 9 11 28 -2
15 2 8 8 -15 6 -24 15 -43 20 -43 5 0 7 10 3 23 -6 21 -5 21 9 3 13 -16 13
-20 0 -33 -20 -20 -18 -29 9 -30 12 0 16 1 10 4 -7 3 -13 9 -13 14 0 4 7 6 15
3 13 -5 15 25 18 218 1 140 3 78 5 -169 1 -216 -2 -393 -6 -393 -16 0 -22 13
-11 26 22 27 1 60 -55 89 -30 15 -74 48 -99 74 -55 56 -153 198 -162 233 -4
14 -32 53 -64 86 -58 61 -100 82 -165 82 l-30 0 26 28 c36 39 57 92 65 164 4
34 9 51 11 36 2 -14 -1 -49 -6 -76z m495 56 c-3 -8 -6 -5 -6 6 -1 11 2 17 5
13 3 -3 4 -12 1 -19z m-1822 -66 c-3 -3 -11 0 -18 7 -9 10 -8 11 6 5 10 -3 15
-9 12 -12z m95 -42 c8 -5 11 -10 5 -10 -5 0 -17 5 -25 10 -8 5 -10 10 -5 10 6
0 17 -5 25 -10z m1603 -212 c-8 -15 -32 -8 -27 7 4 8 1 15 -5 15 -6 0 -11 5
-11 10 0 6 11 3 24 -7 13 -10 22 -21 19 -25z m-854 -9 c-6 -19 -17 -48 -25
-66 -8 -17 -14 -36 -14 -43 0 -13 -30 -82 -40 -90 -3 -3 -11 -18 -18 -33 -7
-15 -16 -26 -21 -23 -4 3 -6 -6 -3 -19 4 -21 1 -24 -14 -18 -14 5 -16 3 -11
-11 4 -10 3 -15 -3 -11 -6 3 -13 -2 -16 -12 -3 -10 -8 -25 -11 -33 -3 -10 -9
-6 -17 15 -8 19 -9 32 -3 36 5 4 7 11 3 17 -6 9 34 78 52 92 4 3 13 16 20 30
6 14 30 54 52 89 22 34 40 65 40 67 0 9 33 55 36 51 2 -2 -1 -19 -7 -38z m901
-4 c0 -8 -4 -15 -10 -15 -5 0 -10 7 -10 15 0 8 5 15 10 15 6 0 10 -7 10 -15z
m349 -14 c19 -12 17 -62 -4 -77 -15 -11 -16 -16 -5 -29 11 -13 8 -15 -19 -15
-18 0 -40 8 -49 17 -16 16 -17 16 -20 0 -2 -11 -13 -17 -33 -17 l-29 0 0 65 0
65 73 0 c39 0 78 -4 86 -9z m201 -5 c0 -11 -14 -16 -47 -18 -36 -2 -49 -7 -51
-20 -3 -15 4 -18 47 -18 39 0 51 -4 51 -15 0 -11 -12 -15 -50 -15 -38 0 -50
-4 -50 -15 0 -10 -10 -15 -30 -15 l-30 0 0 65 0 65 80 0 c63 0 80 -3 80 -14z
m105 -46 c10 -33 21 -60 24 -60 3 0 14 27 24 60 16 56 19 60 47 60 17 0 30 -1
30 -3 0 -2 -11 -30 -24 -63 l-24 -59 -54 -3 -53 -3 -27 66 -27 65 33 0 c31 0
34 -3 51 -60z m210 -3 c0 -60 -1 -62 -27 -65 l-28 -3 0 65 c0 65 0 66 28 66
27 0 27 -1 27 -63z m108 2 c10 -34 22 -58 26 -53 5 5 16 33 26 62 15 47 20 52
45 52 l29 0 -13 -37 c-33 -91 -35 -93 -91 -93 l-52 0 -25 65 -26 65 31 0 c30
0 33 -3 50 -61z m265 34 c6 -16 17 -45 26 -65 l16 -38 -29 0 c-26 0 -31 6 -44
43 -12 35 -16 39 -22 22 -20 -58 -25 -65 -50 -65 -30 0 -29 -2 -9 46 9 22 20
49 25 62 7 17 16 22 43 22 28 0 36 -5 44 -27z m142 -38 l0 -65 -30 0 -30 0 0
65 0 65 30 0 30 0 0 -65z m-2509 -272 c13 -15 12 -15 -8 -4 -24 12 -29 21 -14
21 5 0 15 -7 22 -17z m2358 -79 c-14 -17 -41 -18 -57 -2 -18 18 -16 88 3 88
11 0 14 -10 12 -37 -3 -48 26 -55 31 -8 5 53 16 62 20 17 2 -24 -2 -50 -9 -58z
m87 6 c13 0 24 -4 24 -10 0 -5 -16 -10 -35 -10 l-35 0 0 48 c0 63 14 77 18 18
3 -41 6 -46 28 -46z m64 29 c0 -34 -4 -49 -13 -49 -14 0 -23 82 -12 100 13 21
25 -3 25 -51z m-356 34 c4 -10 -2 -25 -15 -40 l-22 -23 21 0 c12 0 22 -4 22
-10 0 -5 -16 -10 -35 -10 -41 0 -42 3 -15 37 27 34 26 53 -2 45 -14 -3 -19 -2
-14 6 11 18 53 14 60 -5z m116 -21 c0 -41 -14 -62 -42 -62 -24 0 -23 16 2 23
15 4 20 14 20 41 0 20 5 36 10 36 6 0 10 -17 10 -38z m-2388 -124 c-7 -7 -12
-8 -12 -2 0 14 12 26 19 19 2 -3 -1 -11 -7 -17z m2048 -10 c0 -5 -9 -6 -20 -3
-29 9 -25 -14 5 -25 28 -11 32 -31 11 -50 -17 -13 -58 -10 -54 5 2 5 11 8 21
7 26 -5 20 17 -8 28 -31 12 -32 38 -2 49 24 9 47 4 47 -11z m100 13 c3 -1 -3
-6 -12 -12 -12 -7 -18 -22 -18 -49 0 -22 -4 -40 -10 -40 -5 0 -10 18 -10 40 0
27 -5 43 -15 46 -37 15 16 26 65 15z m186 -13 c3 -5 -7 -8 -23 -6 -25 3 -28 0
-28 -27 0 -27 3 -30 29 -27 26 3 28 1 17 -12 -16 -19 -42 -21 -59 -4 -18 18
-15 75 4 86 18 10 51 5 60 -10z m44 0 l0 -21 25 23 c28 26 47 20 22 -8 -15
-16 -15 -20 3 -50 16 -26 17 -32 5 -32 -8 0 -19 9 -25 20 -6 11 -15 20 -20 20
-6 0 -10 -9 -10 -20 0 -11 -4 -20 -10 -20 -5 0 -10 25 -10 55 0 30 5 55 10 55
6 0 10 -10 10 -22z m108 -5 c-5 -27 21 -26 32 1 15 39 20 32 20 -29 0 -30 -4
-55 -10 -55 -5 0 -10 9 -10 20 0 18 -9 24 -27 18 -4 -2 -6 -11 -5 -20 2 -11
-3 -18 -12 -18 -12 0 -16 11 -16 48 0 27 3 52 6 55 11 10 25 -3 22 -20z m202
-24 c0 -35 3 -39 25 -39 14 0 25 -4 25 -10 0 -5 -16 -10 -35 -10 l-35 0 0 56
c0 34 4 53 10 49 6 -3 10 -24 10 -46z m-455 -3 c0 -46 -24 -68 -52 -50 -21 13
-27 36 -19 70 6 21 12 25 39 22 30 -3 32 -5 32 -42z m403 -3 c3 -38 1 -43 -23
-49 -31 -8 -55 10 -55 41 0 44 11 56 44 53 29 -3 31 -6 34 -45z m153 25 l12
-23 10 23 c18 40 37 26 37 -28 0 -27 -4 -50 -10 -50 -5 0 -10 12 -10 26 0 22
-2 24 -15 14 -8 -6 -19 -9 -25 -5 -6 3 -10 -3 -10 -14 0 -12 -4 -21 -10 -21
-5 0 -10 23 -10 50 0 53 12 64 31 28z m-2731 2 c0 -5 -7 -7 -15 -4 -8 4 -15 8
-15 10 0 2 7 4 15 4 8 0 15 -4 15 -10z m-120 -20 c-6 -4 -11 -11 -9 -16 4 -14
-44 -43 -81 -47 -19 -2 -27 -2 -17 0 9 2 17 9 17 14 0 6 4 7 10 4 5 -3 15 5
21 19 7 14 15 23 19 21 5 -3 10 2 14 10 3 9 12 12 21 8 12 -4 13 -8 5 -13z
m1980 -121 c0 -4 -10 -9 -22 -11 -28 -4 -36 -28 -9 -28 12 0 21 -4 21 -10 0
-5 -9 -10 -20 -10 -13 0 -20 -7 -20 -20 0 -11 -4 -20 -10 -20 -5 0 -10 24 -10
53 l0 54 35 0 c19 0 35 -4 35 -8z m94 -9 c7 -7 7 -17 -3 -31 -9 -15 -10 -24
-2 -32 15 -15 14 -27 -3 -27 -8 0 -18 9 -21 20 -3 11 -11 20 -16 20 -5 0 -9
-9 -9 -20 0 -11 -4 -20 -10 -20 -11 0 -14 93 -3 103 8 9 54 0 67 -13z m46 -35
c0 -30 -4 -55 -10 -55 -11 0 -14 93 -3 103 12 12 13 8 13 -48z m100 45 c3 -1
-6 -5 -19 -9 -31 -8 -40 -31 -12 -31 12 0 21 -4 21 -10 0 -5 -9 -10 -20 -10
-11 0 -20 -4 -20 -10 0 -5 11 -10 25 -10 14 0 25 -4 25 -10 0 -5 -16 -10 -35
-10 l-35 0 0 53 0 53 33 -2 c17 -1 34 -2 37 -4z m95 -98 c-3 -4 -17 7 -31 23
l-24 30 6 -27 c5 -22 2 -28 -10 -28 -13 0 -16 11 -16 50 0 56 16 66 43 28 16
-23 16 -23 16 -2 2 45 16 33 19 -16 2 -29 0 -55 -3 -58z m107 84 c12 -17 9
-61 -4 -74 -7 -7 -25 -12 -40 -12 -27 0 -28 2 -28 49 0 39 4 50 18 53 21 5 45
-2 54 -16z m92 3 c-3 -5 -13 -8 -21 -7 -9 2 -18 -3 -20 -9 -3 -8 4 -13 16 -13
26 0 38 -25 21 -45 -14 -17 -56 -20 -65 -5 -4 6 7 10 24 10 37 0 41 15 6 24
-30 8 -36 52 -7 58 25 6 53 -3 46 -13z m221 11 c18 0 28 -30 14 -46 -7 -9 -7
-18 1 -33 8 -17 8 -21 -4 -21 -8 0 -18 9 -21 20 -3 11 -11 20 -16 20 -5 0 -9
-9 -9 -20 0 -11 -4 -20 -10 -20 -11 0 -14 93 -3 104 4 3 13 4 21 1 7 -3 20 -5
27 -5z m111 -2 c4 -5 -2 -8 -14 -8 -29 0 -39 -20 -13 -27 27 -7 27 -23 1 -23
-11 0 -20 -4 -20 -10 0 -5 11 -10 25 -10 14 0 25 -4 25 -10 0 -5 -16 -10 -35
-10 l-35 0 0 53 c0 52 1 53 29 53 16 -1 33 -4 37 -8z m84 -20 c0 12 5 22 10
22 6 0 10 -22 10 -50 0 -27 -3 -50 -7 -50 -4 0 -18 12 -31 28 l-23 27 6 -27
c4 -21 2 -28 -10 -28 -11 0 -15 12 -15 48 0 62 9 70 37 35 22 -27 23 -27 23
-5z m-291 -15 c7 -21 15 -44 17 -50 3 -7 -1 -13 -9 -13 -9 0 -17 6 -20 13 -3
9 -9 9 -27 -1 -12 -7 -24 -11 -27 -8 -9 9 29 96 42 96 6 0 17 -17 24 -37z
m406 -9 c20 -52 16 -61 -15 -42 -18 10 -24 10 -27 1 -3 -7 -11 -13 -19 -13
-10 0 -11 6 -4 25 6 14 14 36 20 50 14 36 25 31 45 -21z m-247 -660 l-3 -97
-66 -1 -66 -1 16 22 c13 18 22 21 49 17 50 -9 63 8 61 82 -1 42 -6 64 -14 64
-20 0 -25 -12 -12 -28 10 -13 8 -14 -13 -7 -23 7 -23 7 -7 -9 22 -23 23 -66 1
-66 -13 0 -14 3 -4 15 18 21 2 38 -31 31 -17 -3 -29 -1 -32 7 -2 7 -7 9 -11 5
-4 -3 -3 -16 4 -27 8 -16 8 -21 -1 -21 -6 0 -13 9 -16 20 -3 11 -10 20 -15 20
-5 0 -6 -4 -3 -10 3 -6 -1 -7 -9 -4 -11 4 -16 19 -16 45 l0 39 95 0 96 0 -3
-96z m-388 -9 c22 -27 8 -50 -33 -50 -32 -1 -37 2 -37 23 0 13 -4 21 -9 17 -6
-3 -8 -14 -6 -23 3 -16 -6 -19 -80 -20 -93 -1 -115 10 -95 47 10 19 20 21 129
21 91 0 121 -3 131 -15z m207 -47 c-2 -13 -4 -3 -4 22 0 25 2 35 4 23 2 -13 2
-33 0 -45z m29 -34 c-23 -16 -36 -18 -36 -4 0 6 9 10 20 10 11 0 20 5 20 12 0
6 3 8 7 4 5 -4 -1 -14 -11 -22z m52 -31 c-10 -2 -26 -2 -35 0 -10 3 -2 5 17 5
19 0 27 -2 18 -5z m59 1 c-3 -3 -12 -4 -19 -1 -8 3 -5 6 6 6 11 1 17 -2 13 -5z"/>
<path d="M2320 1956 c0 -2 7 -7 16 -10 8 -3 12 -2 9 4 -6 10 -25 14 -25 6z"/>
<path d="M2560 1870 c0 -5 5 -10 11 -10 5 0 7 5 4 10 -3 6 -8 10 -11 10 -2 0
-4 -4 -4 -10z"/>
<path d="M2599 1857 c-11 -8 -14 -18 -8 -32 6 -17 8 -17 8 -2 1 9 5 17 10 17
5 0 11 7 15 15 7 18 -3 19 -25 2z"/>
<path d="M2711 1714 c0 -11 3 -14 6 -6 3 7 2 16 -1 19 -3 4 -6 -2 -5 -13z"/>
<path d="M2808 1593 c7 -3 16 -2 19 1 4 3 -2 6 -13 5 -11 0 -14 -3 -6 -6z"/>
<path d="M3012 1708 c2 -17 9 -22 23 -20 45 8 44 42 -1 42 -21 0 -25 -4 -22
-22z"/>
<path d="M3701 1242 c-12 -23 -4 -55 13 -49 15 5 20 47 8 59 -7 7 -14 3 -21
-10z"/>
<path d="M4101 1242 c-12 -23 -4 -55 13 -49 15 5 20 47 8 59 -7 7 -14 3 -21
-10z"/>
<path d="M3470 1080 c0 -5 7 -10 15 -10 8 0 15 5 15 10 0 6 -7 10 -15 10 -8 0
-15 -4 -15 -10z"/>
<path d="M3825 1089 c-8 -23 1 -54 16 -54 20 0 23 39 5 55 -13 10 -17 10 -21
-1z"/>
<path d="M4150 1080 c0 -5 7 -10 15 -10 8 0 15 5 15 10 0 6 -7 10 -15 10 -8 0
-15 -4 -15 -10z"/>
<path d="M4056 1061 c-4 -7 -5 -15 -2 -18 9 -9 19 4 14 18 -4 11 -6 11 -12 0z"/>
<path d="M4460 1055 c0 -8 5 -15 10 -15 6 0 10 7 10 15 0 8 -4 15 -10 15 -5 0
-10 -7 -10 -15z"/>
<path d="M3617 393 c-11 -10 -8 -43 3 -43 6 0 10 11 10 25 0 26 -2 29 -13 18z"/>
<path d="M3640 375 c0 -14 5 -25 10 -25 6 0 10 11 10 25 0 14 -4 25 -10 25 -5
0 -10 -11 -10 -25z"/>
<path d="M3670 376 c0 -22 3 -27 11 -19 8 8 8 16 0 30 -9 16 -10 14 -11 -11z"/>
<path d="M3706 380 c9 -34 10 -34 33 -11 11 11 16 23 11 26 -6 4 -10 1 -10 -4
0 -15 -27 -14 -34 2 -3 6 -3 1 0 -13z"/>
<path d="M3823 386 c4 -10 1 -13 -9 -9 -7 3 -14 0 -14 -5 0 -15 40 -26 52 -14
14 14 2 42 -18 42 -10 0 -14 -5 -11 -14z"/>
</g>
</svg>
