<?xml version="1.0" standalone="no"?>
<!DOCTYPE svg PUBLIC "-//W3C//DTD SVG 20010904//EN"
 "http://www.w3.org/TR/2001/REC-SVG-20010904/DTD/svg10.dtd">
<svg version="1.0" xmlns="http://www.w3.org/2000/svg"
 width="2048.000000pt" height="1163.000000pt" viewBox="0 0 2048.000000 1163.000000"
 preserveAspectRatio="xMidYMid meet">

<g transform="translate(0.000000,1163.000000) scale(0.100000,-0.100000)"
fill="#000000" stroke="none">
<path d="M0 11436 l0 -193 42 -7 c46 -8 73 -33 56 -53 -6 -7 -19 -13 -29 -13
-10 0 -21 -4 -24 -10 -3 -5 -15 -10 -26 -10 -19 0 -19 -63 -19 -5575 l0 -5575
10240 0 10240 0 0 5815 0 5815 -10240 0 -10240 0 0 -194z m7688 -2323 c33 -32
40 -47 46 -93 6 -47 5 -56 -10 -65 -10 -5 -40 -30 -67 -55 l-49 -45 6 -74 c3
-41 12 -82 19 -90 7 -9 18 -28 25 -43 14 -34 34 -35 89 -6 l42 22 25 -24 c39
-36 34 -57 -16 -71 -24 -6 -57 -17 -74 -24 -45 -19 -78 -9 -97 31 -22 45 -49
44 -106 -4 -92 -78 -131 -85 -195 -38 -17 13 -42 27 -56 31 -57 17 -98 45
-108 74 -10 27 -7 34 20 63 28 31 31 31 44 14 12 -17 14 -17 30 -2 12 12 20
14 27 7 6 -6 37 -11 68 -11 l57 0 21 43 c22 46 27 77 12 77 -26 0 -30 146 -6
184 7 12 16 36 20 55 6 28 15 37 59 56 28 13 70 24 93 24 35 1 48 -5 81 -36z
m4461 -14 c17 -6 31 -14 31 -17 1 -4 2 -61 4 -127 2 -80 9 -137 20 -171 10
-30 16 -72 14 -105 l-3 -54 -50 -24 c-68 -32 -114 -37 -159 -16 -56 27 -63 49
-28 89 29 33 55 130 50 183 -1 11 6 37 17 56 18 34 18 37 1 69 -11 20 -16 48
-14 73 2 32 8 40 28 46 38 10 54 10 89 -2z m-3140 -367 c64 -51 105 -74 116
-64 5 4 6 2 2 -3 -3 -6 3 -17 15 -24 11 -7 17 -8 14 -3 -4 6 24 10 73 9 61 0
83 3 96 16 18 19 45 23 45 7 0 -15 26 -12 40 5 13 15 77 20 96 7 5 -4 18 -24
28 -45 23 -50 46 -77 66 -77 9 0 21 -5 27 -11 7 -7 17 -8 29 -1 28 14 103 22
110 11 3 -5 18 -9 34 -9 21 0 42 13 79 51 47 47 53 50 69 36 12 -10 38 -15 83
-15 63 0 66 2 89 35 13 19 37 41 54 50 17 9 44 26 59 39 46 39 148 28 213 -21
30 -23 33 -29 22 -43 -11 -13 -10 -15 4 -9 12 4 15 2 12 -7 -4 -9 10 -15 45
-19 28 -3 62 -14 76 -23 14 -9 28 -14 31 -11 11 10 54 -42 83 -100 16 -33 37
-65 45 -73 9 -7 16 -18 16 -25 0 -7 18 -33 41 -58 43 -50 50 -89 15 -95 -11
-3 -16 0 -12 7 5 7 1 9 -8 5 -9 -3 -16 -2 -16 4 0 6 -23 13 -50 17 -41 6 -56
13 -78 41 -15 19 -34 34 -43 34 -9 0 -35 7 -58 14 -39 14 -41 14 -56 -7 -8
-12 -15 -30 -15 -40 0 -32 -27 -49 -83 -50 -28 0 -69 3 -89 7 -32 7 -38 6 -38
-7 0 -21 -48 -66 -77 -73 -13 -4 -23 -11 -23 -18 0 -6 -15 -23 -34 -38 -18
-15 -36 -39 -39 -55 -6 -32 18 -117 39 -134 19 -16 18 -81 -3 -151 -16 -55
-33 -76 -33 -43 0 8 -3 15 -8 15 -18 0 -46 91 -52 170 -6 84 -7 85 -50 128
-62 61 -114 86 -175 84 -141 -6 -134 -4 -128 -33 3 -15 -2 -49 -10 -76 -9 -26
-32 -122 -53 -213 -55 -247 -86 -379 -154 -665 -34 -143 -81 -348 -106 -455
-46 -202 -61 -266 -149 -635 -29 -121 -60 -251 -68 -290 -26 -114 -55 -236
-118 -495 -32 -135 -75 -314 -96 -398 -34 -143 -37 -151 -49 -125 -15 35 -17
29 -4 -17 9 -33 8 -34 -7 -15 l-16 20 7 -20 c14 -40 18 -75 9 -75 -6 0 -8 -11
-6 -24 3 -13 -3 -35 -12 -49 -10 -16 -14 -35 -10 -49 5 -18 4 -20 -4 -8 -9 13
-11 12 -12 -5 -1 -11 -2 -26 -2 -32 1 -7 -3 -10 -8 -7 -5 3 -9 -23 -10 -58 0
-42 -3 -56 -8 -43 -5 11 -6 24 -3 29 3 5 0 6 -6 2 -8 -5 -10 -25 -6 -59 3 -29
1 -79 -6 -112 -6 -33 -13 -69 -14 -80 -2 -11 -16 -65 -31 -120 -15 -55 -27
-107 -27 -117 0 -9 -8 -24 -19 -34 -18 -16 -19 -16 -19 8 0 27 -34 66 -44 50
-3 -6 0 -12 8 -15 9 -4 12 -21 10 -58 -1 -33 1 -47 6 -39 5 8 12 11 16 7 4 -3
2 -13 -4 -20 -7 -8 -9 -30 -6 -53 4 -29 3 -35 -5 -24 -6 8 -13 34 -17 57 -3
24 -10 40 -15 37 -13 -8 -11 -94 2 -91 14 3 35 -53 23 -62 -5 -3 -10 -30 -11
-59 -1 -29 -8 -66 -16 -82 -9 -16 -13 -40 -9 -52 5 -21 4 -22 -11 -9 -9 7 -17
20 -17 29 0 8 -3 13 -6 9 -4 -3 -2 -19 4 -36 8 -21 7 -42 -3 -78 -7 -26 -14
-39 -14 -29 -1 11 -3 17 -6 14 -3 -3 0 -27 7 -53 10 -39 10 -49 1 -52 -7 -3
-13 -15 -13 -27 0 -12 -9 -54 -20 -94 -11 -39 -20 -82 -21 -94 -1 -22 -1 -22
-9 2 -9 24 -9 24 -7 -5 1 -17 -5 -37 -15 -47 -10 -10 -18 -27 -18 -38 0 -26 8
-25 20 2 6 17 9 18 9 6 1 -9 -4 -20 -9 -23 -6 -3 -8 -18 -5 -33 4 -21 3 -23
-3 -7 -8 17 -9 15 -15 -13 -4 -18 -11 -32 -17 -32 -16 0 -36 -22 -44 -47 -4
-11 -14 -23 -24 -25 -15 -4 -17 -16 -14 -81 2 -43 8 -77 13 -77 5 0 9 9 9 21
0 11 5 29 10 39 7 13 7 21 0 25 -17 10 -11 44 10 62 11 10 20 25 20 35 0 19
18 34 28 23 4 -3 -1 -20 -11 -36 -19 -34 -23 -64 -7 -54 6 3 10 2 10 -4 0 -20
-19 -21 -25 -1 -3 11 -11 20 -16 20 -13 0 -11 -18 3 -22 10 -4 10 -13 0 -45
-17 -56 -15 -87 3 -48 18 41 18 27 0 -25 -8 -24 -13 -45 -11 -48 3 -2 -1 -11
-9 -19 -8 -8 -16 -31 -16 -51 -2 -34 -2 -32 -9 13 -4 28 -5 60 -3 73 4 18 0
25 -16 29 -19 5 -21 12 -21 90 0 63 -3 84 -12 81 -9 -3 -14 -32 -16 -86 -2
-67 0 -83 13 -88 11 -5 15 -21 15 -66 0 -83 -7 -87 -147 -88 l-113 0 0 40 c0
29 -4 40 -15 40 -11 0 -15 -11 -15 -40 0 -22 -1 -43 -2 -47 -2 -5 11 -10 27
-12 27 -4 26 -5 -20 -17 -47 -11 -38 -12 120 -15 l170 -3 -195 -7 c-319 -12
-667 -10 -678 4 -5 7 -16 30 -24 52 -14 38 -13 48 18 180 18 77 42 174 53 215
12 41 32 124 46 184 14 60 30 114 35 121 5 7 12 34 16 61 3 27 8 65 11 84 l6
35 19 -40 19 -40 -7 35 c-3 19 -10 40 -15 45 -10 14 16 128 30 133 6 2 11 21
11 42 0 20 3 52 7 71 5 28 7 30 14 14 5 -14 8 -8 8 23 1 54 19 55 23 0 3 -41
4 -42 41 -45 l38 -2 -3 55 c-4 64 -16 73 -34 24 -7 -19 -13 -30 -13 -25 -1 6
-6 3 -11 -5 -6 -10 -8 14 -5 70 2 60 1 78 -6 61 -5 -13 -7 -31 -4 -40 2 -9 0
-23 -5 -31 -15 -23 -13 30 5 109 7 36 21 104 30 151 25 134 47 210 58 203 6
-4 7 4 3 21 -4 18 -2 32 7 41 13 12 18 10 37 -11 30 -30 40 -30 40 0 0 14 4
27 8 30 12 7 8 99 -4 103 -6 2 -18 -13 -26 -34 -14 -33 -14 -39 0 -52 16 -17
5 -25 -25 -19 -14 2 -18 13 -18 45 0 22 2 40 5 38 4 -2 14 37 24 86 10 49 21
89 25 89 3 0 7 19 8 41 2 23 8 48 14 55 6 8 11 33 11 56 1 35 2 38 8 18 7 -23
8 -23 15 -6 5 11 3 26 -3 37 -15 24 -16 50 -1 29 8 -12 9 -8 6 15 -2 17 -2 24
0 18 3 -7 9 -13 14 -13 11 0 11 2 -1 37 -9 26 -9 27 5 9 18 -23 19 -16 4 17
-9 20 -6 50 15 147 15 67 31 130 36 140 5 9 6 21 2 26 -4 5 1 2 11 -5 19 -15
19 -19 22 74 3 68 27 205 41 226 5 9 9 36 15 99 5 63 76 337 100 386 10 22 19
54 19 71 0 52 77 395 79 354 2 -24 30 20 31 47 0 12 5 22 10 22 6 0 11 -10 11
-22 1 -18 2 -19 6 -5 3 10 0 24 -7 32 -12 15 -10 66 4 77 5 3 4 19 -3 37 -11
26 -10 45 8 128 12 54 21 112 20 128 0 27 -2 25 -24 -23 -13 -29 -31 -59 -40
-68 -8 -8 -15 -21 -15 -27 0 -7 -32 -45 -70 -85 -39 -40 -70 -77 -70 -82 0 -6
-4 -10 -10 -10 -20 0 -53 -44 -55 -72 -2 -16 -17 -47 -34 -68 -17 -21 -31 -46
-31 -54 0 -9 -4 -16 -10 -16 -5 0 -10 -7 -10 -15 0 -8 -7 -15 -15 -15 -19 0
-19 1 0 36 13 26 13 30 -1 41 -14 10 -12 19 12 80 15 37 31 70 36 71 4 2 8 11
8 20 0 10 7 25 14 35 9 11 14 51 15 109 2 97 15 128 52 128 16 0 37 50 30 74
-5 20 31 88 61 116 18 16 57 41 86 56 29 15 61 38 72 53 11 14 25 32 32 40 7
8 14 23 15 34 2 10 10 25 18 34 10 9 13 24 10 37 -5 17 -4 18 4 6 9 -13 11
-12 12 5 1 11 1 36 0 55 -1 19 3 49 8 65 5 17 10 22 10 12 1 -10 6 -15 11 -12
15 9 12 21 -7 41 -10 10 -18 22 -19 28 -1 18 36 86 46 86 18 0 48 60 75 149
14 47 31 95 38 106 6 11 13 63 15 115 l4 95 -43 -40 c-119 -109 -231 -223
-244 -249 -8 -16 -15 -49 -15 -73 0 -31 -5 -45 -17 -50 -9 -3 -31 -21 -50 -40
-19 -18 -41 -34 -49 -34 -8 -1 -18 -3 -24 -4 -5 -1 -16 -3 -23 -4 -18 -2 -52
-28 -117 -91 -31 -30 -79 -76 -106 -102 -55 -53 -74 -74 -74 -83 0 -4 -13 -20
-29 -36 -20 -19 -34 -48 -42 -84 -7 -30 -16 -55 -20 -55 -4 0 -16 -16 -28 -35
-11 -19 -26 -35 -34 -35 -7 0 -31 -13 -53 -30 -21 -16 -43 -30 -47 -30 -5 0
-19 -13 -33 -29 -29 -35 -82 -69 -114 -74 -12 -2 -28 -10 -34 -18 -6 -9 -19
-18 -28 -22 -10 -3 -18 -11 -18 -16 0 -6 -7 -8 -15 -5 -9 4 -15 0 -15 -10 0
-9 -6 -16 -14 -16 -8 0 -17 -7 -20 -16 -3 -8 -11 -12 -18 -8 -7 5 -9 1 -6 -14
4 -16 2 -19 -10 -15 -11 5 -14 2 -9 -11 4 -10 3 -15 -3 -11 -6 3 -10 -1 -10
-9 0 -9 -4 -16 -10 -16 -5 0 -10 3 -10 6 0 10 65 104 72 104 5 0 8 6 8 14 0
15 96 150 276 391 66 88 135 182 154 210 46 67 57 80 112 134 26 25 76 75 110
110 35 35 94 95 131 133 61 61 69 74 74 117 3 30 14 59 29 76 13 15 25 32 27
38 3 9 8 9 19 -1 13 -10 23 -8 59 11 71 37 109 61 109 69 0 7 81 97 151 168
40 40 62 97 34 86 -9 -3 -22 -6 -29 -6 -7 0 -39 -20 -72 -45 -32 -24 -64 -45
-71 -45 -6 0 -20 -11 -31 -25 -11 -14 -25 -25 -31 -25 -7 0 -14 -7 -17 -15 -4
-8 -10 -13 -14 -10 -5 3 -18 -9 -30 -25 -12 -17 -25 -29 -27 -26 -5 4 219 348
237 366 3 3 14 18 23 33 14 21 16 32 7 42 -9 10 -6 15 12 21 25 8 65 49 74 77
3 9 9 17 14 17 5 0 11 8 14 18 3 9 40 53 81 97 41 44 75 84 75 89 0 9 37 -18
129 -92z m-6064 -16 c19 -29 43 -124 38 -150 -4 -18 -12 -21 -67 -23 -51 -1
-72 -7 -114 -34 -29 -17 -52 -35 -52 -39 0 -14 -65 -39 -97 -38 -18 1 -39 -4
-46 -11 -8 -6 -32 -13 -53 -15 -73 -8 -103 -17 -97 -32 3 -8 1 -14 -4 -14 -4
0 -21 -11 -36 -26 -15 -14 -32 -22 -37 -19 -6 4 -13 -1 -16 -9 -3 -9 -14 -16
-25 -16 -10 0 -22 -7 -27 -16 -5 -10 -12 -12 -15 -7 -4 6 19 32 50 59 31 27
73 63 92 81 19 17 40 29 45 26 6 -4 8 -3 4 1 -10 12 215 216 238 216 6 0 19 9
29 20 10 12 25 18 33 15 10 -3 12 0 8 10 -3 9 0 15 9 15 8 0 15 5 15 10 0 6
11 10 25 10 14 0 25 4 25 8 0 17 62 -1 75 -22z m3055 -196 c0 -11 -6 -20 -13
-20 -7 0 -18 9 -25 20 -11 18 -10 20 13 20 18 0 25 -5 25 -20z m95 -10 c-19
-8 -18 -11 4 -14 5 0 13 -4 17 -8 11 -12 -24 -10 -47 2 -29 16 -23 30 14 29
27 0 29 -2 12 -9z m-3615 -356 c0 -8 -4 -12 -10 -9 -5 3 -10 10 -10 16 0 5 5
9 10 9 6 0 10 -7 10 -16z m-44 -29 c10 -8 31 -15 47 -15 18 0 27 -5 27 -16 0
-10 -4 -12 -12 -7 -13 7 -25 9 -123 12 l-50 2 40 19 c49 24 47 23 71 5z m-283
-20 c-3 -9 -8 -14 -10 -11 -3 3 -2 9 2 15 9 16 15 13 8 -4z m904 -125 c9 -17
13 -20 13 -8 0 9 5 20 10 23 17 11 39 -14 46 -53 4 -20 16 -51 26 -69 19 -31
24 -33 74 -33 50 0 55 -2 79 -37 14 -21 25 -50 25 -66 0 -28 0 -28 -57 -26
-32 2 -64 7 -70 12 -10 7 -13 2 -13 -20 0 -16 -3 -32 -6 -35 -6 -7 -64 24 -64
34 0 4 -16 4 -36 1 -24 -4 -39 -2 -44 7 -4 6 -27 16 -51 20 -86 16 -207 83
-228 124 -11 23 -11 33 0 55 7 14 13 30 13 36 2 19 52 36 106 34 81 -2 90 -1
90 17 0 12 9 14 37 12 28 -2 41 -9 50 -28z m5221 -10 c-7 -10 -14 -17 -17 -15
-4 4 18 35 25 35 2 0 -1 -9 -8 -20z m-5958 -63 c0 -5 9 -18 21 -28 11 -9 20
-20 20 -23 -4 -30 1 -38 19 -33 15 4 20 0 20 -14 0 -14 -8 -19 -32 -21 -67 -3
-93 3 -114 27 -24 26 -34 23 -34 -9 0 -17 2 -18 10 -6 5 8 10 11 10 5 0 -5 -5
-17 -10 -25 -7 -11 -10 -11 -10 -2 0 7 -4 11 -9 7 -12 -7 -34 31 -28 48 3 7
10 1 16 -13 10 -23 11 -21 6 15 -3 28 -2 34 4 20 8 -18 9 -19 16 -2 4 9 13 17
21 17 7 0 20 11 29 23 15 23 45 33 45 14z m9033 -44 c-7 -2 -21 -2 -30 0 -10
3 -4 5 12 5 17 0 24 -2 18 -5z m27 -28 c0 -8 -4 -15 -10 -15 -5 0 -10 7 -10
15 0 8 5 15 10 15 6 0 10 -7 10 -15z m-8471 -189 c6 -7 35 -16 64 -20 244 -28
231 -23 261 -119 30 -97 76 -344 69 -365 -5 -11 -7 -11 -14 0 -6 9 -9 8 -9 -7
0 -33 -59 -50 -116 -34 -24 7 -44 17 -44 21 0 13 -74 -21 -90 -42 -15 -19 -36
-23 -103 -21 -23 1 -36 5 -32 11 3 6 1 10 -4 10 -6 0 -11 7 -11 15 0 8 -8 15
-18 15 -10 0 -24 9 -32 20 -8 11 -22 20 -32 20 -10 0 -18 4 -18 9 0 5 -19 18
-43 29 -23 11 -54 32 -70 47 -20 21 -27 24 -27 11 0 -20 -26 -21 -33 -2 -3 8
-22 19 -42 26 -30 10 -42 10 -61 -1 -13 -7 -24 -18 -24 -26 0 -7 -7 -13 -15
-13 -8 0 -15 4 -15 8 0 18 -48 30 -95 24 -41 -4 -47 -3 -42 10 3 9 0 21 -6 27
-6 6 -8 11 -5 11 3 0 0 21 -8 47 -17 56 -18 77 -3 67 9 -5 10 4 5 31 -5 25 -4
35 3 30 6 -3 11 -18 12 -33 0 -15 3 -21 6 -14 2 6 16 12 29 12 13 0 24 -6 24
-12 0 -9 4 -8 10 2 7 11 12 12 18 4 4 -6 22 -15 40 -19 20 -4 30 -11 26 -18
-5 -8 -2 -8 7 1 17 16 29 15 29 -2 0 -8 13 -16 30 -18 30 -4 30 -4 30 42 0 40
5 51 31 74 19 17 28 33 25 43 -9 22 24 87 37 74 15 -15 67 -14 67 0 0 8 14 10
39 6 22 -2 44 0 49 5 8 8 49 21 83 27 4 1 12 -5 18 -13z m906 -56 c9 -16 12
-31 8 -32 -18 -3 -63 -3 -63 0 0 5 34 62 37 62 1 0 9 -13 18 -30z m3001 -19
c-6 -37 -54 -101 -76 -101 -5 0 -24 -9 -42 -19 -18 -11 -53 -22 -78 -25 -25
-3 -67 -8 -95 -11 -37 -5 -46 -4 -35 4 8 6 25 11 37 11 13 0 24 8 28 20 3 11
10 20 15 20 4 0 11 11 14 25 4 15 16 27 31 31 14 3 25 9 25 13 0 17 81 52 114
49 20 -1 41 3 48 10 19 19 21 15 14 -27z m-1478 20 c10 -6 10 -10 -3 -21 -8
-7 -15 -19 -15 -26 0 -8 -2 -14 -4 -14 -2 0 -11 -3 -20 -6 -10 -4 -16 -1 -16
9 0 9 -8 15 -19 14 -11 0 -17 -6 -14 -14 3 -7 0 -13 -6 -13 -6 0 -11 9 -11 20
0 14 7 20 24 20 15 0 26 7 29 20 5 21 32 26 55 11z m939 -102 c-3 -12 0 -19 9
-19 8 0 14 -4 14 -10 0 -5 8 -10 18 -10 10 0 22 -4 28 -10 9 -9 41 -17 72 -19
6 -1 12 -7 12 -15 0 -9 12 -16 28 -18 l27 -3 -33 -18 c-38 -21 -77 -19 -77 2
0 8 -12 18 -27 22 -16 4 -28 3 -28 -1 0 -5 -17 -6 -37 -3 -41 7 -103 48 -103
68 0 7 -5 15 -11 17 -18 6 7 47 34 57 32 12 81 -14 74 -40z m-2402 20 c11 -16
1 -19 -13 -3 -7 8 -8 14 -3 14 5 0 13 -5 16 -11z m-1597 -59 c0 -9 -3 -7 -8 5
-5 11 -8 29 -8 40 0 16 2 15 8 -5 4 -14 8 -32 8 -40z m7936 -6 c3 -9 6 -24 6
-35 0 -10 7 -19 15 -19 16 0 19 -9 9 -34 -9 -23 -50 -19 -68 6 -21 29 -20 57
1 80 20 22 29 23 37 2z m10046 -263 c0 -5 -6 -11 -12 -14 -18 -6 -39 3 -32 14
7 12 44 12 44 0z m-13956 -58 c13 -18 15 -27 6 -38 -8 -10 -8 -14 2 -18 7 -3
-15 -5 -49 -5 -47 1 -60 4 -56 14 3 9 -2 14 -13 15 -11 1 -23 2 -29 4 -5 1
-16 3 -22 3 -19 3 -16 52 2 52 8 0 15 4 15 9 0 6 19 11 43 13 45 3 71 -9 101
-49z m-507 -25 c-3 -8 -6 -5 -6 6 -1 11 2 17 5 13 3 -3 4 -12 1 -19z m-11 -74
c-6 -23 -13 -41 -16 -39 -3 2 -7 -12 -7 -32 -1 -19 -6 -40 -12 -46 -6 -6 -11
-17 -11 -25 0 -25 -52 -144 -71 -163 -11 -11 -28 -19 -39 -19 -11 0 -37 -9
-57 -20 -21 -11 -45 -20 -53 -20 -8 0 -28 -7 -45 -16 -48 -25 -106 -43 -122
-37 -7 3 -21 -1 -31 -10 -31 -27 -112 -68 -123 -62 -5 4 -30 -14 -55 -39 -25
-27 -58 -49 -74 -53 -17 -3 -30 -9 -30 -14 0 -4 -10 -11 -22 -14 -55 -17 -88
-39 -114 -76 -24 -35 -25 -41 -12 -57 8 -9 17 -24 20 -32 3 -8 27 -21 52 -28
31 -8 45 -16 40 -24 -5 -8 9 -9 52 -4 32 5 70 8 84 8 14 -1 51 -1 83 -1 42 -1
57 -5 57 -15 0 -8 7 -16 15 -20 8 -3 15 -16 15 -28 0 -30 -28 -71 -45 -64 -7
2 -25 -2 -40 -10 -33 -17 -97 -18 -113 -2 -9 9 -12 5 -12 -19 0 -44 -17 -54
-70 -42 -25 6 -53 15 -62 20 -12 6 -18 6 -18 -1 0 -20 -41 -33 -66 -20 -28 15
-54 0 -54 -31 0 -11 -6 -19 -14 -19 -8 0 -16 -5 -18 -11 -2 -6 -20 -11 -41
-12 -49 -1 -47 -19 4 -35 35 -11 44 -10 69 5 16 9 26 21 23 27 -4 5 1 7 10 3
10 -4 16 -2 14 6 -1 6 8 13 21 15 13 2 21 -1 20 -8 -4 -17 33 -39 39 -23 5 13
31 6 51 -14 21 -21 112 -11 112 12 0 6 12 18 28 26 15 8 30 18 34 24 4 5 8 6
8 1 0 -5 8 0 18 12 20 23 72 40 72 24 0 -6 18 -13 40 -17 22 -4 47 -13 55 -22
34 -33 7 -173 -33 -173 -11 0 -23 -7 -26 -16 -5 -12 -18 -15 -61 -12 -46 3
-55 0 -59 -16 -3 -11 -10 -16 -20 -13 -8 3 -20 -1 -26 -9 -7 -8 -23 -14 -37
-14 -13 0 -22 -4 -18 -10 3 -5 -6 -17 -20 -26 -21 -14 -34 -15 -77 -6 -48 9
-53 8 -73 -14 -12 -13 -28 -24 -34 -24 -7 0 -9 -4 -6 -10 3 -5 -2 -10 -12 -10
-27 0 -65 -45 -61 -72 2 -15 -2 -22 -10 -20 -7 1 -22 -3 -34 -9 -21 -12 -21
-12 4 -23 l25 -11 -24 -24 c-24 -23 -24 -23 -30 -2 -3 12 -9 21 -14 21 -5 0
-9 9 -9 21 0 14 -5 19 -17 17 -14 -2 -18 -13 -19 -43 0 -22 -4 -47 -8 -57 -5
-11 -2 -17 11 -20 14 -3 11 -7 -14 -21 -18 -10 -33 -24 -33 -31 0 -17 -81 -46
-128 -46 -26 0 -33 3 -28 15 4 13 2 14 -14 5 -11 -6 -20 -15 -20 -21 0 -6 -4
-7 -10 -4 -5 3 -10 2 -10 -3 0 -5 -18 -15 -40 -22 -22 -7 -40 -17 -40 -22 0
-4 -9 -8 -20 -8 -16 0 -19 5 -14 33 l5 32 -17 -32 c-20 -40 -32 -42 -28 -5 2
16 1 19 -2 7 -10 -34 -27 -44 -19 -10 4 17 8 53 9 80 1 44 -4 56 -34 92 -44
52 -85 124 -67 117 7 -2 13 3 14 13 1 10 8 36 16 58 8 22 13 43 10 47 -8 14
-37 9 -79 -13 l-40 -22 -48 51 c-27 29 -61 75 -75 104 -15 29 -37 69 -49 88
-12 19 -22 40 -22 46 0 6 25 28 55 50 30 21 55 45 55 52 0 6 6 12 13 12 13 0
67 63 67 79 0 6 3 11 8 11 4 0 34 25 67 55 33 30 65 55 70 55 23 1 121 110
109 122 -7 7 46 49 55 43 4 -2 14 5 21 16 8 10 18 19 23 19 14 0 46 43 47 63
0 9 7 17 14 17 8 0 27 11 42 25 l26 25 21 -28 c40 -52 48 -53 73 -7 13 25 27
37 50 41 18 3 41 14 51 23 10 10 24 16 31 13 6 -2 12 4 12 13 0 9 4 14 8 11 5
-3 22 8 39 24 34 34 102 60 156 60 23 0 37 5 37 13 0 12 84 57 106 57 6 0 17
11 24 25 8 14 22 25 34 25 12 0 30 7 40 15 11 8 30 15 43 15 13 0 31 4 41 9
48 24 110 39 121 28 7 -7 13 -2 21 17 7 18 24 33 50 43 22 9 40 19 40 23 0 4
15 10 32 14 18 4 48 17 68 30 19 12 52 29 73 36 20 8 37 18 37 22 0 5 6 3 13
-3 9 -9 10 -23 3 -55z m-3386 -11 c0 5 10 3 155 -36 50 -13 113 -30 140 -37
120 -29 203 -52 237 -65 51 -20 164 -45 198 -45 16 0 52 -13 80 -30 28 -16 56
-30 63 -30 7 0 21 -6 32 -13 11 -8 35 -17 54 -21 44 -8 61 -23 61 -52 0 -12 5
-26 10 -29 6 -3 10 -31 10 -62 0 -48 -2 -55 -17 -50 -10 3 -47 14 -83 25 -36
11 -78 25 -95 30 -16 6 -57 16 -90 23 -33 7 -82 21 -110 32 -35 13 -72 19
-123 18 -40 0 -80 3 -90 9 -74 41 -158 70 -232 80 -49 7 -88 18 -95 26 -5 8
-22 15 -37 16 -16 1 -28 8 -28 16 0 9 -6 12 -16 8 -9 -3 -12 -2 -9 5 4 5 2 16
-4 23 -9 11 -41 147 -41 173 0 3 7 0 15 -7 8 -7 15 -10 15 -7z m7956 -2 c36
-1 25 23 139 -311 37 -107 71 -199 75 -203 7 -8 25 39 127 341 l58 173 70 -3
c39 -2 69 -6 68 -10 -2 -5 -3 -226 -3 -493 l0 -485 -70 0 -70 0 -1 298 -1 297
-71 -213 -72 -213 -34 3 -34 3 -67 200 -67 200 -6 -124 c-4 -68 -7 -198 -7
-288 l0 -163 -70 0 -70 0 0 493 c0 272 2 496 4 498 2 2 19 3 38 3 18 -1 47 -2
64 -3z m2049 -18 c49 -26 76 -54 106 -113 23 -45 23 -48 20 -369 -1 -238 -6
-332 -15 -355 -35 -84 -129 -146 -221 -146 -59 0 -137 34 -177 76 -56 60 -58
74 -58 431 0 298 2 332 19 368 20 43 69 93 116 119 41 23 156 17 210 -11z
m2501 -1 c78 -40 119 -104 130 -200 l7 -62 -71 0 -70 0 -7 47 c-8 54 -50 103
-89 103 -73 0 -106 -44 -106 -143 0 -74 12 -92 81 -121 154 -65 188 -85 214
-124 36 -55 49 -150 35 -270 -6 -51 -7 -98 -4 -104 4 -6 2 -8 -3 -5 -6 4 -18
-4 -27 -18 -30 -46 -101 -78 -185 -83 -68 -4 -83 -1 -127 21 -27 14 -59 36
-71 49 -36 38 -63 109 -63 166 l0 52 69 0 68 0 5 -50 c3 -28 13 -59 23 -70 39
-43 129 -34 162 17 17 25 24 148 11 195 -8 27 -12 29 -166 98 -123 56 -164
121 -163 259 0 136 66 234 175 262 47 12 129 3 172 -19z m-3454 -32 c1 -27 2
-57 2 -66 1 -14 -16 -16 -142 -15 l-143 2 3 -148 3 -148 123 -3 122 -3 0 -64
0 -65 -125 0 -125 0 0 -145 0 -145 140 0 140 0 0 -70 0 -70 -210 0 -210 0 0
495 0 495 210 0 210 0 2 -50z m238 -375 l0 -425 140 0 140 0 0 -70 0 -70 -210
0 -210 0 0 495 0 495 70 0 70 0 0 -425z m1311 400 c49 -27 83 -70 103 -132 15
-46 17 -91 14 -360 -3 -293 -4 -310 -25 -348 -54 -101 -112 -125 -299 -125
l-134 0 0 496 0 496 153 -4 c128 -3 158 -6 188 -23z m399 -470 l0 -495 -70 0
-70 0 0 495 0 495 70 0 70 0 0 -495z m560 453 c0 -24 3 -53 6 -65 l6 -23 -146
0 -147 0 3 -152 3 -153 123 -3 122 -3 0 -64 0 -65 -125 0 -125 0 0 -210 0
-210 -70 0 -70 0 0 495 0 495 210 0 210 0 0 -42z m520 -23 l0 -65 -140 0 -141
0 3 -147 3 -148 123 -3 122 -3 0 -64 0 -65 -125 0 -125 0 0 -145 0 -145 140 0
140 0 0 -70 0 -70 -210 0 -210 0 0 495 0 495 210 0 210 0 0 -65z m1060 0 l0
-65 -80 0 -80 0 0 -430 0 -430 -70 0 -70 0 0 430 0 430 -85 0 -85 0 0 65 0 65
235 0 235 0 0 -65z m210 -430 l0 -496 -67 3 -68 3 -2 493 -2 492 69 0 70 0 0
-495z m300 155 c30 -187 57 -340 60 -340 3 0 30 147 59 328 30 180 56 333 59
340 7 19 142 17 142 -2 0 -8 -22 -120 -49 -248 -26 -128 -70 -344 -97 -481
l-49 -247 -64 2 -65 3 -97 480 c-54 264 -98 486 -99 493 0 8 21 12 73 12 l72
0 55 -340z m668 198 c18 -79 68 -300 111 -493 l78 -350 -65 -3 c-39 -2 -68 1
-72 8 -3 6 -14 53 -24 105 l-18 95 -98 0 c-85 0 -99 -2 -104 -17 -3 -10 -12
-57 -22 -105 l-17 -88 -69 0 -70 0 6 26 c4 14 51 226 106 472 55 246 102 457
105 470 5 20 11 22 63 22 l59 0 31 -142z m402 -283 l0 -425 140 0 140 0 0 -70
0 -70 -210 0 -210 0 0 495 0 495 70 0 70 0 0 -425z m800 360 l0 -65 -140 0
-141 0 3 -147 3 -148 122 -3 122 -3 -2 -62 -2 -62 -122 -3 -123 -3 0 -144 0
-145 140 0 140 0 0 -70 0 -70 -210 0 -210 0 0 495 0 495 210 0 210 0 0 -65z
m330 -225 c57 -160 107 -293 112 -296 4 -3 8 128 8 290 l0 296 70 0 70 0 0
-495 0 -495 -68 0 -69 0 -102 283 c-57 155 -107 289 -112 297 -5 9 -9 -107 -9
-282 l0 -298 -70 0 -70 0 0 495 0 495 69 0 68 0 103 -290z m-13848 41 c-3 -8
-1 -12 4 -9 13 8 16 -52 3 -71 -10 -15 -10 -15 -6 0 4 13 1 15 -14 12 -10 -3
-19 -8 -19 -12 0 -4 -11 -8 -25 -9 -18 -1 -25 3 -25 15 0 13 -3 14 -11 6 -15
-15 11 -43 40 -43 12 0 21 -3 21 -7 0 -11 -53 -63 -65 -63 -9 0 -48 -55 -50
-70 -2 -13 -26 -50 -33 -49 -31 5 -62 -3 -62 -16 0 -14 -14 -29 -82 -85 -20
-17 -48 -50 -62 -73 -13 -23 -39 -55 -56 -71 -26 -24 -33 -27 -40 -15 -7 11
-12 11 -22 1 -6 -6 -28 -12 -48 -12 -39 -1 -83 -33 -95 -70 l-7 -23 -19 24
c-73 94 -84 131 -35 122 18 -4 27 3 43 29 21 36 52 74 96 119 16 16 25 34 21
41 -12 20 74 85 129 99 68 16 119 52 136 97 17 43 37 61 67 62 12 0 29 11 38
25 16 25 34 25 66 0 26 -20 45 -11 54 26 7 31 13 36 36 35 19 -1 26 -5 22 -15z
m9918 5 c0 -11 10 -13 40 -9 58 8 49 -4 -13 -17 -36 -7 -62 -7 -78 -1 -13 5
-18 10 -11 10 6 1 12 8 12 16 0 9 9 15 25 15 15 0 25 -6 25 -14z m-10784 -148
c6 -21 -20 -58 -41 -58 -13 0 -25 31 -25 67 0 41 52 34 66 -9z m3740 -26 c-17
-16 -18 -16 -5 5 7 12 15 20 18 17 3 -2 -3 -12 -13 -22z m1076 -177 c-2 -14
-8 -28 -13 -31 -10 -6 -11 2 -3 34 9 30 22 28 16 -3z m-375 -71 c-3 -4 0 -16
8 -28 21 -30 19 -80 -5 -101 -11 -10 -20 -24 -20 -32 0 -9 -16 -13 -59 -13
-38 0 -61 -4 -64 -12 -6 -16 -29 40 -25 60 2 9 21 20 43 26 32 10 40 16 40 36
0 17 6 25 18 25 19 0 39 24 31 37 -3 4 5 8 17 8 12 0 19 -3 16 -6z m-4779 -81
c-3 -32 -7 -38 -28 -41 -14 -1 -31 2 -38 6 -15 10 -5 42 13 42 7 0 18 7 25 15
21 25 31 17 28 -22z m363 -191 c10 -37 24 -94 30 -127 6 -33 30 -139 54 -235
58 -237 75 -340 55 -340 -6 0 -10 -8 -10 -17 0 -14 -2 -15 -9 -4 -8 13 -16 12
-91 -5 -14 -3 -51 -7 -83 -8 -33 0 -61 -6 -65 -13 -9 -14 -102 -15 -102 -1 0
5 -4 7 -9 3 -5 -3 -13 -1 -16 5 -5 8 -12 7 -23 -2 -12 -10 -14 -10 -8 0 10 16
-4 15 -27 -2 -11 -8 -14 -17 -8 -20 6 -4 5 -16 -4 -33 -18 -35 -5 -58 34 -59
17 0 31 3 31 8 0 4 11 8 24 8 13 0 26 4 28 9 7 20 141 20 226 0 59 -14 87 -17
96 -10 7 6 15 8 18 6 3 -3 3 6 1 20 -3 15 -1 25 6 25 6 0 11 -8 11 -17 0 -15
2 -16 10 -3 8 12 10 10 10 -8 0 -13 4 -32 10 -42 13 -24 3 -50 -20 -50 -36 0
-50 -12 -50 -41 0 -19 -11 -40 -30 -60 -16 -18 -27 -35 -25 -39 3 -4 -2 -13
-11 -20 -12 -11 -17 -10 -30 9 -14 19 -23 21 -76 18 -37 -3 -63 -10 -69 -18
-5 -8 -9 -10 -9 -4 0 5 -5 4 -12 -3 -7 -7 -28 -12 -47 -12 -20 0 -54 -5 -76
-10 -22 -5 -44 -5 -50 0 -16 13 -365 13 -365 0 0 -7 -11 2 -25 18 -15 18 -30
56 -39 98 -8 38 -29 113 -45 167 -17 54 -38 137 -46 185 -9 48 -20 107 -25
132 -5 25 -5 49 0 53 4 5 24 -7 44 -27 19 -20 39 -36 43 -36 4 0 16 19 26 43
21 53 23 113 2 121 -10 3 -15 -1 -16 -12 0 -12 -3 -9 -10 8 -6 13 -12 26 -14
28 -9 9 -63 -23 -72 -42 -5 -12 -8 -16 -6 -9 1 7 -2 15 -7 18 -6 4 -10 -2 -10
-12 -1 -10 -11 12 -25 49 -36 102 -39 106 -60 75 -27 -41 -86 -66 -190 -78
-74 -9 -99 -9 -110 1 -8 7 -15 17 -15 22 0 10 40 47 52 48 4 0 27 14 51 30 25
17 50 30 56 30 7 0 22 6 34 14 12 8 45 16 72 19 l50 4 0 74 c0 84 -11 78 115
65 134 -13 162 -33 176 -126 3 -19 7 -43 10 -52 3 -10 0 -18 -7 -18 -8 0 -8
-4 1 -15 10 -12 10 -19 2 -27 -9 -9 -12 -9 -12 1 0 30 -25 1 -30 -35 -5 -33
-3 -40 12 -40 10 0 18 4 18 8 0 4 5 8 11 8 7 0 19 8 28 19 9 10 26 21 38 25
11 4 33 23 48 42 25 33 31 35 69 31 22 -2 52 -8 65 -12 21 -7 23 -6 15 16 -18
57 -2 86 30 53 14 -13 22 -15 42 -6 13 7 24 16 24 22 0 5 5 10 11 10 21 0 134
60 169 90 59 50 90 84 90 100 1 26 20 -16 41 -88z m4280 -94 c3 -23 2 -36 -5
-35 -6 1 -17 -17 -24 -41 -9 -26 -25 -49 -41 -59 -14 -9 -38 -24 -53 -35 -25
-17 -31 -17 -63 -4 -31 13 -35 19 -35 51 0 40 27 95 46 95 7 0 14 10 16 22 2
15 13 26 33 31 17 5 37 13 45 16 8 4 28 5 44 1 26 -5 32 -12 37 -42z m-404
-71 c23 -7 63 -31 88 -54 37 -33 46 -47 43 -69 -2 -15 -12 -32 -23 -38 -11 -6
-25 -17 -31 -25 -6 -8 -30 -16 -53 -17 -57 -3 -94 -20 -108 -49 -6 -14 -7 -25
-3 -25 5 0 26 -18 48 -40 21 -22 44 -40 49 -40 20 0 45 -70 39 -109 -3 -20 -7
-42 -8 -49 -1 -7 -9 -10 -20 -6 -13 4 -18 0 -18 -13 0 -19 -51 -65 -94 -85
-14 -6 -26 -17 -26 -24 0 -13 -79 -24 -86 -12 -3 5 -30 24 -59 43 -40 25 -61
48 -80 84 -27 55 -25 75 17 131 12 16 19 33 15 36 -4 4 1 13 11 20 15 12 15
15 2 23 -9 7 -18 7 -24 1 -14 -14 -46 -12 -110 4 -70 18 -93 31 -101 55 -12
40 5 67 63 96 31 16 62 29 67 29 6 0 32 15 58 33 26 19 64 35 85 37 45 5 104
29 121 50 7 9 17 14 21 11 5 -3 11 -1 15 5 8 14 51 12 102 -3z m10432 -48 c28
-6 62 -20 77 -32 15 -11 53 -33 86 -49 100 -47 105 -108 7 -103 -28 2 -53 6
-56 9 -4 3 -13 6 -21 6 -7 0 -25 9 -39 20 -14 11 -36 20 -48 20 -34 0 -123 73
-121 100 2 39 32 47 115 29z m-11302 -41 c42 -19 56 -36 51 -63 -5 -23 -4 -24
23 -9 35 18 39 18 39 -1 0 -25 -23 -65 -37 -65 -8 0 -11 -4 -8 -10 3 -5 1 -10
-4 -10 -6 0 -11 -5 -11 -11 0 -6 -24 -34 -52 -64 -29 -29 -59 -61 -65 -71 -11
-17 -12 -15 -6 11 3 17 10 36 16 43 13 17 1 28 -16 14 -11 -9 -19 -6 -37 13
-13 13 -27 22 -31 19 -21 -12 -28 8 -14 36 10 19 14 51 13 87 -3 50 -1 58 15
55 9 -2 17 2 17 7 0 6 15 15 33 20 44 13 42 13 74 -1z m-2582 -110 c15 -22 14
-24 -7 -40 -13 -10 -29 -23 -35 -28 -17 -14 -60 -30 -66 -24 -9 10 7 56 22 62
9 3 25 16 36 29 25 28 30 28 50 1z m9931 -95 l45 -36 36 17 c44 21 111 30 156
22 54 -10 123 -62 146 -110 20 -40 21 -59 21 -390 0 -327 -1 -349 -20 -386
-68 -134 -231 -159 -337 -54 -24 24 -46 58 -52 80 -7 24 -11 172 -11 390 l0
350 -29 -2 c-19 -1 -32 4 -35 13 -4 8 -13 13 -20 10 -8 -3 -17 -1 -19 6 -11
29 -17 -5 -8 -40 6 -21 11 -80 11 -131 l0 -94 -125 -245 c-69 -135 -125 -247
-125 -249 0 -2 56 -4 125 -4 l125 0 0 -70 0 -70 -210 0 -210 0 0 64 c0 60 4
71 81 217 217 412 199 370 199 459 0 91 -17 120 -70 120 -48 0 -70 -30 -70
-95 l0 -55 -71 0 -71 0 4 69 c5 94 42 155 118 194 48 25 63 28 118 24 46 -3
73 -12 103 -32 40 -26 41 -26 34 -4 -5 14 -3 19 3 15 6 -3 20 7 32 24 30 42
69 40 126 -7z m1769 27 c3 -5 16 -10 28 -10 12 -1 35 -12 51 -25 27 -21 29
-26 18 -49 -9 -20 -19 -26 -45 -26 -19 0 -43 8 -55 18 -11 9 -30 25 -41 34
-23 20 -28 54 -8 61 21 9 46 7 52 -3z m-3840 -10 c-3 -5 -1 -10 4 -10 6 0 11
-7 11 -15 0 -9 8 -19 17 -22 14 -5 11 -8 -12 -14 -15 -5 -32 -6 -37 -3 -13 8
-9 62 5 67 18 8 19 8 12 -3z m3391 -29 c48 -22 101 -82 114 -131 13 -46 13
-221 0 -255 -5 -14 -19 -35 -30 -47 -25 -27 -25 -31 0 -53 30 -28 40 -78 40
-216 0 -114 -2 -129 -25 -175 -14 -27 -41 -61 -61 -76 -68 -51 -175 -49 -246
5 -61 47 -79 90 -85 205 -8 143 2 205 39 248 l30 34 -30 34 c-36 42 -48 110
-38 225 8 98 41 154 111 193 60 33 122 36 181 9z m-506 -486 l0 -495 -70 0
-70 0 0 420 c0 231 -3 420 -6 420 -3 0 -32 -20 -64 -45 -32 -25 -61 -45 -64
-45 -3 0 -6 31 -6 69 l0 69 68 51 c66 50 68 50 140 51 l72 0 0 -495z m-9363
351 c36 -41 93 -132 93 -150 0 -2 -16 -2 -36 1 -25 3 -41 0 -55 -13 -15 -13
-34 -17 -80 -16 -53 2 -65 6 -104 39 -25 20 -45 43 -45 50 0 7 -4 13 -10 13
-5 0 -10 9 -10 20 0 11 4 20 9 20 5 0 14 13 19 30 8 20 19 31 39 35 45 10 93
34 94 47 1 7 5 0 9 -17 l8 -30 1 31 c1 41 15 53 19 18 2 -16 24 -50 49 -78z
m287 59 c16 -43 -35 -95 -99 -102 -36 -5 -52 -1 -80 18 -19 13 -35 26 -35 29
1 17 60 43 123 54 39 7 75 14 78 15 4 0 9 -6 13 -14z m5378 -19 c15 -13 30
-40 33 -59 6 -30 3 -40 -19 -61 -33 -34 -49 -33 -79 4 -35 41 -51 93 -37 120
15 28 67 26 102 -4z m1465 3 c55 -46 47 -119 -13 -119 -29 0 -36 5 -48 34 -8
18 -19 37 -25 40 -12 8 -15 49 -3 60 10 10 70 0 89 -15z m-6026 -32 c-10 -9
-11 -8 -5 6 3 10 9 15 12 12 3 -3 0 -11 -7 -18z m3454 -39 c30 -65 31 -88 4
-122 -18 -23 -28 -27 -63 -24 -51 4 -71 37 -61 100 8 43 53 98 81 98 8 0 26
-23 39 -52z m-1856 -278 c0 -9 -4 -8 -9 5 -5 11 -9 27 -9 35 0 9 4 8 9 -5 5
-11 9 -27 9 -35z m-3439 -80 c80 -14 259 -60 283 -72 9 -5 17 -15 17 -23 0 -8
6 -15 14 -15 39 0 21 -93 -26 -132 -18 -16 -40 -28 -49 -28 -9 0 -22 -7 -29
-15 -7 -8 -19 -15 -27 -15 -8 0 -28 -14 -45 -31 -19 -18 -46 -33 -67 -36 -20
-3 -48 -13 -63 -21 -26 -15 -28 -15 -51 10 -17 19 -39 28 -73 33 -64 9 -114
26 -114 40 0 5 -14 16 -31 24 -23 10 -29 18 -26 33 7 25 -1 48 -17 48 -6 0
-23 11 -38 25 -14 13 -38 27 -52 31 -30 7 -57 45 -37 52 6 2 11 13 11 25 1 27
19 51 42 55 9 1 28 9 42 16 31 16 236 13 336 -4z m-443 -72 c-3 -8 -6 -5 -6 6
-1 11 2 17 5 13 3 -3 4 -12 1 -19z m-403 -25 c-7 -35 -6 -37 9 -24 10 7 17 10
17 5 0 -20 -13 -54 -20 -54 -11 0 -21 59 -14 86 10 38 16 28 8 -13z m-61 -5
c2 -7 1 -22 -3 -33 -6 -16 -9 -17 -13 -5 -12 34 3 70 16 38z m111 -150 c8 -13
19 -47 25 -76 14 -67 14 -81 0 -62 -9 12 -10 12 -6 -5 4 -19 -1 -20 -61 -17
-41 3 -79 -2 -106 -12 -47 -17 -142 -23 -201 -12 -24 4 -96 1 -172 -8 -132
-16 -309 -13 -345 5 -10 6 -19 5 -23 -2 -11 -16 -34 36 -41 93 -5 38 -4 49 5
44 7 -5 9 -16 5 -29 -6 -19 -5 -20 10 -5 9 10 13 24 9 34 -5 13 -3 16 10 11 9
-3 17 -2 17 2 0 14 57 20 239 26 91 3 168 8 173 11 4 3 57 5 118 6 60 0 110 4
110 9 0 5 49 9 110 9 103 0 110 -1 124 -22z m-514 -413 c7 -8 19 -15 26 -15
22 0 17 -67 -8 -100 -30 -41 -61 -39 -87 6 -26 43 -27 73 -3 102 20 25 54 29
72 7z m-333 -27 c-3 -8 -6 -5 -6 6 -1 11 2 17 5 13 3 -3 4 -12 1 -19z m32 -93
c0 -30 -15 1 -22 45 l-6 35 14 -30 c8 -16 14 -39 14 -50z m8 43 c-3 -8 -6 -5
-6 6 -1 11 2 17 5 13 3 -3 4 -12 1 -19z m4890 -25 c-3 -10 -5 -4 -5 12 0 17 2
24 5 18 2 -7 2 -21 0 -30z m780 -495 c-3 -8 -6 -5 -6 6 -1 11 2 17 5 13 3 -3
4 -12 1 -19z m-5463 -463 c3 -12 4 -9 2 8 -5 40 12 33 20 -8 3 -19 10 -33 14
-30 4 3 11 -2 14 -11 4 -10 2 -13 -6 -8 -7 5 -8 3 -3 -5 4 -7 16 -10 27 -8 11
3 21 0 25 -9 6 -16 33 -19 33 -4 0 6 9 10 20 10 12 0 31 6 43 14 12 8 38 17
57 21 19 4 45 13 57 21 21 13 26 10 84 -45 34 -33 58 -64 55 -70 -4 -5 -1 -20
6 -32 10 -17 10 -23 1 -26 -7 -3 -13 -11 -13 -18 0 -17 -23 -25 -40 -15 -8 5
-19 2 -27 -6 -8 -8 -18 -12 -23 -9 -5 3 -15 -4 -23 -15 -9 -13 -20 -18 -31
-14 -9 3 -34 -1 -56 -10 -22 -9 -40 -13 -40 -9 0 3 -12 -4 -26 -18 -23 -22
-26 -23 -35 -6 -15 26 -29 21 -29 -10 0 -22 -2 -25 -10 -13 -5 8 -10 24 -10
34 0 11 -8 29 -18 40 -22 25 -55 114 -76 209 -9 38 -16 71 -16 75 0 12 18 -13
24 -33z m5108 -862 c-3 -16 -7 -22 -10 -15 -4 13 4 42 11 42 2 0 2 -12 -1 -27z
m25 -5 c-3 -8 -6 -5 -6 6 -1 11 2 17 5 13 3 -3 4 -12 1 -19z m5547 -284 c9 -8
16 -26 16 -39 0 -42 -66 -86 -105 -71 -19 7 -19 65 0 90 8 11 15 16 15 12 0
-4 7 0 16 8 8 9 22 16 29 16 7 0 21 -7 29 -16z"/>
<path d="M8780 7941 c0 -6 5 -13 10 -16 6 -3 10 1 10 9 0 9 -4 16 -10 16 -5 0
-10 -4 -10 -9z"/>
<path d="M8747 7875 c-4 -8 -2 -17 3 -20 6 -4 10 3 10 14 0 25 -6 27 -13 6z"/>
<path d="M8711 7801 c-1 -29 1 -32 14 -21 16 13 21 35 6 25 -5 -3 -12 3 -14
12 -3 10 -5 3 -6 -16z"/>
<path d="M8681 7804 c0 -11 3 -14 6 -6 3 7 2 16 -1 19 -3 4 -6 -2 -5 -13z"/>
<path d="M9168 7783 c7 -3 16 -2 19 1 4 3 -2 6 -13 5 -11 0 -14 -3 -6 -6z"/>
<path d="M9200 7731 c0 -12 6 -21 14 -21 17 0 15 32 -2 38 -7 2 -12 -6 -12
-17z"/>
<path d="M8987 7584 c-3 -3 -3 -12 0 -20 4 -11 9 -12 19 -3 8 6 14 15 14 20 0
10 -24 12 -33 3z"/>
<path d="M9045 7480 c3 -5 8 -10 11 -10 2 0 4 5 4 10 0 6 -5 10 -11 10 -5 0
-7 -4 -4 -10z"/>
<path d="M9120 7270 c0 -29 4 -40 15 -40 11 0 15 11 15 40 0 29 -4 40 -15 40
-11 0 -15 -11 -15 -40z"/>
<path d="M9185 7140 c3 -5 8 -10 11 -10 2 0 4 5 4 10 0 6 -5 10 -11 10 -5 0
-7 -4 -4 -10z"/>
<path d="M9220 7138 c0 -29 17 -41 39 -29 32 17 27 41 -9 41 -17 0 -30 -5 -30
-12z"/>
<path d="M9220 7059 c0 -5 5 -7 10 -4 6 3 10 8 10 11 0 2 -4 4 -10 4 -5 0 -10
-5 -10 -11z"/>
<path d="M9120 6920 c0 -5 -7 -10 -15 -10 -11 0 -15 -11 -15 -40 0 -29 4 -40
15 -40 10 0 15 10 15 29 0 17 5 33 10 36 6 3 10 13 10 21 0 8 -4 14 -10 14 -5
0 -10 -4 -10 -10z"/>
<path d="M9205 6913 c3 -8 5 -18 5 -21 0 -8 20 20 20 29 0 3 -7 6 -15 6 -10 0
-14 -6 -10 -14z"/>
<path d="M8457 6513 c-2 -5 -1 -17 3 -27 6 -19 7 -19 12 2 6 21 -6 40 -15 25z"/>
<path d="M8391 6464 c0 -11 3 -14 6 -6 3 7 2 16 -1 19 -3 4 -6 -2 -5 -13z"/>
<path d="M8092 5242 c-16 -51 -16 -52 8 -52 17 0 19 3 11 17 -6 12 -5 20 5 28
12 9 13 13 1 29 -12 17 -14 15 -25 -22z"/>
<path d="M7992 4880 c0 -14 2 -19 5 -12 2 6 2 18 0 25 -3 6 -5 1 -5 -13z"/>
<path d="M8620 4840 c0 -5 5 -10 10 -10 6 0 10 5 10 10 0 6 -4 10 -10 10 -5 0
-10 -4 -10 -10z"/>
<path d="M8552 4715 c0 -16 2 -22 5 -12 2 9 2 23 0 30 -3 6 -5 -1 -5 -18z"/>
<path d="M7954 4632 c-7 -10 -9 -40 -6 -70 4 -43 8 -52 24 -52 17 0 19 -5 13
-40 -4 -26 -3 -40 4 -40 6 0 11 18 11 40 0 28 4 40 14 40 9 0 15 14 18 40 3
33 0 40 -14 40 -14 0 -18 -8 -18 -35 0 -19 -4 -35 -10 -35 -5 0 -11 16 -11 35
-1 19 -2 41 -3 48 -1 6 5 11 12 10 18 -4 15 24 -4 31 -9 3 -16 6 -17 6 -1 0
-7 -8 -13 -18z"/>
<path d="M8488 4583 c7 -3 16 -2 19 1 4 3 -2 6 -13 5 -11 0 -14 -3 -6 -6z"/>
<path d="M8618 4583 c6 -2 12 -15 12 -28 0 -12 8 -29 18 -36 14 -11 15 -11 5
1 -7 8 -13 27 -13 42 0 20 -5 28 -17 27 -11 0 -13 -3 -5 -6z"/>
<path d="M8821 4535 c-1 -23 -4 -27 -11 -15 -5 8 -10 11 -10 5 0 -5 4 -17 9
-24 8 -12 11 -9 16 12 4 14 5 32 2 39 -3 7 -6 0 -6 -17z"/>
<path d="M7896 4454 c-4 -9 -4 -19 -1 -22 3 -3 5 0 5 7 0 7 5 9 10 6 6 -3 10
-2 10 4 0 18 -18 21 -24 5z"/>
<path d="M8640 4377 c1 -57 2 -60 15 -43 8 11 15 27 15 35 0 9 3 26 6 37 4 16
0 23 -15 27 -20 5 -21 1 -21 -56z"/>
<path d="M8553 4345 c0 -44 2 -61 4 -37 2 23 2 59 0 80 -2 20 -4 1 -4 -43z"/>
<path d="M7881 4384 c0 -11 3 -14 6 -6 3 7 2 16 -1 19 -3 4 -6 -2 -5 -13z"/>
<path d="M7980 4310 c0 -33 -4 -43 -20 -47 -24 -6 -25 -19 -5 -39 9 -10 23
-13 35 -9 19 6 21 14 18 68 -4 71 -28 95 -28 27z"/>
<path d="M8240 4254 c0 -14 3 -14 15 -4 8 7 15 14 15 16 0 2 -7 4 -15 4 -8 0
-15 -7 -15 -16z"/>
<path d="M8098 4113 c-44 -11 6 -79 60 -81 31 -1 32 1 32 37 0 35 -3 39 -31
45 -33 6 -34 6 -61 -1z"/>
<path d="M7962 4093 c5 -26 38 -29 38 -4 0 15 -6 21 -21 21 -14 0 -19 -5 -17
-17z"/>
<path d="M8006 4074 c-13 -33 -6 -44 24 -44 36 0 37 4 6 35 -20 20 -25 21 -30
9z"/>
<path d="M8465 4041 c-3 -6 -19 -11 -36 -11 -22 0 -29 -5 -29 -20 0 -16 7 -20
34 -20 28 0 35 4 40 26 7 28 2 42 -9 25z"/>
<path d="M8080 3980 c0 -26 4 -30 26 -30 15 0 33 -8 40 -17 9 -12 13 -13 14
-5 0 12 -63 82 -75 82 -3 0 -5 -13 -5 -30z"/>
<path d="M8642 3740 c0 -14 2 -19 5 -12 2 6 2 18 0 25 -3 6 -5 1 -5 -13z"/>
<path d="M8210 3670 c0 -29 4 -40 15 -40 11 0 15 11 15 40 0 29 -4 40 -15 40
-11 0 -15 -11 -15 -40z"/>
<path d="M7845 3669 c-8 -25 6 -42 31 -37 24 4 28 23 9 42 -22 21 -32 20 -40
-5z"/>
<path d="M7920 3606 c0 -43 3 -56 15 -56 11 0 15 12 15 44 0 26 -6 48 -15 56
-13 11 -15 5 -15 -44z"/>
<path d="M8561 3504 c0 -11 3 -14 6 -6 3 7 2 16 -1 19 -3 4 -6 -2 -5 -13z"/>
<path d="M8578 3480 c-7 -24 -3 -38 8 -28 3 4 4 17 2 30 l-3 23 -7 -25z"/>
<path d="M7666 3438 c-4 -23 -3 -45 1 -49 4 -4 9 14 11 42 3 60 -3 64 -12 7z"/>
<path d="M7920 3350 c0 -100 3 -120 15 -120 13 0 15 20 15 120 0 100 -2 120
-15 120 -12 0 -15 -20 -15 -120z"/>
<path d="M7730 3270 c0 -29 4 -40 15 -40 11 0 15 11 15 40 0 29 -4 40 -15 40
-11 0 -15 -11 -15 -40z"/>
<path d="M7640 3245 c0 -8 5 -15 10 -15 6 0 10 7 10 15 0 8 -4 15 -10 15 -5 0
-10 -7 -10 -15z"/>
<path d="M7810 3190 c0 -29 4 -40 15 -40 11 0 15 11 15 40 0 29 -4 40 -15 40
-11 0 -15 -11 -15 -40z"/>
<path d="M8000 3160 c0 -5 14 -10 31 -10 17 0 28 4 24 10 -3 6 -17 10 -31 10
-13 0 -24 -4 -24 -10z"/>
<path d="M8091 3166 c10 -10 59 -14 64 -5 4 5 -11 9 -31 9 -21 0 -35 -2 -33
-4z"/>
<path d="M8320 3030 c0 -29 4 -40 15 -40 11 0 15 11 15 40 0 29 -4 40 -15 40
-11 0 -15 -11 -15 -40z"/>
<path d="M7890 2871 c0 -22 -5 -41 -10 -43 -7 -2 -6 -10 3 -22 22 -30 37 -10
37 50 0 41 -4 54 -15 54 -11 0 -15 -11 -15 -39z"/>
<path d="M8400 2899 c0 -5 5 -7 10 -4 6 3 10 8 10 11 0 2 -4 4 -10 4 -5 0 -10
-5 -10 -11z"/>
<path d="M7944 2815 c-8 -19 22 -49 41 -41 8 3 15 17 15 31 0 20 -5 25 -25 25
-14 0 -28 -7 -31 -15z"/>
<path d="M7970 2666 c0 -2 7 -9 15 -16 12 -10 15 -10 15 4 0 9 -7 16 -15 16
-8 0 -15 -2 -15 -4z"/>
<path d="M2305 7389 c-4 -6 -5 -12 -2 -15 2 -3 7 2 10 11 7 17 1 20 -8 4z"/>
<path d="M2992 7234 c-12 -13 -11 -18 4 -35 9 -10 23 -19 31 -19 17 0 17 38
-1 56 -18 17 -18 17 -34 -2z"/>
<path d="M5690 6825 c1 -26 2 -28 11 -12 8 14 8 22 0 30 -8 8 -11 3 -11 -18z"/>
<path d="M4498 5959 c-9 -5 -28 -8 -41 -5 -41 7 -84 -22 -102 -68 -18 -46 -56
-96 -73 -96 -6 0 -14 -16 -18 -37 -5 -29 -3 -39 12 -50 12 -9 21 -10 28 -3 5
5 17 10 26 10 16 0 53 50 81 109 17 34 18 34 87 36 41 2 83 9 102 19 18 9 48
16 67 16 62 0 33 47 -43 68 -50 14 -103 15 -126 1z"/>
<path d="M4371 5436 c-15 -18 -7 -76 11 -87 21 -14 32 -5 42 36 7 32 6 40 -10
52 -23 17 -29 16 -43 -1z"/>
<path d="M4295 5389 c-4 -6 -5 -12 -2 -15 2 -3 7 2 10 11 7 17 1 20 -8 4z"/>
<path d="M4290 5321 c0 -6 4 -13 10 -16 6 -3 7 1 4 9 -7 18 -14 21 -14 7z"/>
<path d="M12221 6844 c-20 -26 -21 -38 -21 -325 0 -197 4 -306 11 -322 24 -54
105 -63 150 -18 l29 29 0 297 c0 362 -1 365 -105 365 -35 0 -48 -5 -64 -26z"/>
<path d="M12800 6515 l0 -365 53 0 c67 0 99 17 114 60 16 47 18 564 2 609 -14
40 -54 61 -119 61 l-50 0 0 -365z"/>
<path d="M16592 6558 c-18 -91 -32 -173 -32 -182 0 -13 12 -16 70 -16 39 0 70
4 70 8 0 18 -61 318 -68 336 -5 12 -19 -36 -40 -146z"/>
<path d="M2845 5700 c3 -5 13 -10 21 -10 8 0 14 5 14 10 0 6 -9 10 -21 10 -11
0 -17 -4 -14 -10z"/>
<path d="M6590 5698 c-12 -22 -12 -22 6 -6 10 10 15 20 12 24 -4 3 -12 -5 -18
-18z"/>
<path d="M14065 5455 l-25 -24 0 -320 c0 -317 0 -320 22 -341 28 -26 72 -26
98 0 19 19 20 33 20 345 0 312 -1 326 -20 345 -27 27 -66 25 -95 -5z"/>
<path d="M15113 5468 c-28 -13 -33 -35 -33 -141 0 -80 2 -90 25 -112 27 -28
45 -31 78 -14 34 18 37 27 37 137 0 89 -3 105 -20 122 -22 22 -53 25 -87 8z"/>
<path d="M15105 5065 c-24 -23 -25 -30 -25 -145 0 -115 1 -122 25 -145 29 -30
68 -32 95 -5 18 18 20 33 20 148 0 70 -4 132 -8 138 -10 15 -47 34 -67 34 -9
0 -27 -11 -40 -25z"/>
<path d="M3261 3274 c0 -11 3 -14 6 -6 3 7 2 16 -1 19 -3 4 -6 -2 -5 -13z"/>
<path d="M3270 3241 c0 -7 -5 -9 -12 -5 -7 5 -8 3 -3 -5 5 -9 10 -10 18 -2 6
6 8 14 4 18 -4 3 -7 1 -7 -6z"/>
</g>
</svg>
